<?xml version="1.0" encoding="UTF-8"?>
<!DOCTYPE svg PUBLIC "-//W3C//DTD SVG 1.1//EN" "http://www.w3.org/Graphics/SVG/1.1/DTD/svg11.dtd">
<!-- Creator: CorelDRAW 2020 (64-Bit) -->
<svg xmlns="http://www.w3.org/2000/svg" xml:space="preserve" width="1.31925in" height="2.54099in" version="1.1" style="shape-rendering:geometricPrecision; text-rendering:geometricPrecision; image-rendering:optimizeQuality; fill-rule:evenodd; clip-rule:evenodd"
viewBox="0 0 426.93 822.31"
 xmlns:xlink="http://www.w3.org/1999/xlink"
 xmlns:xodm="http://www.corel.com/coreldraw/odm/2003">
 <defs>
  <style type="text/css">
   <![CDATA[
    .fil3 {fill:none}
    .fil9 {fill:url(#id10)}
    .fil1 {fill:url(#id11)}
    .fil6 {fill:url(#id12)}
    .fil5 {fill:url(#id13)}
    .fil12 {fill:url(#id14)}
    .fil11 {fill:url(#id15)}
    .fil0 {fill:url(#id16)}
    .fil7 {fill:url(#id17)}
    .fil13 {fill:url(#id18)}
    .fil4 {fill:url(#id19)}
    .fil10 {fill:url(#id20)}
    .fil8 {fill:url(#id21)}
    .fil2 {fill:url(#id22)}
   ]]>
  </style>
    <clipPath id="id0">
     <path d="M275.98 369.46c0,0 24.4,67.86 -3.81,93.78 -28.21,25.92 -73.19,27.45 -104.45,15.25 -31.26,-12.2 119.24,135.1 119.24,135.1 0,0 90.43,-30.64 114.07,-108.41 23.64,-77.77 -75.48,-176.89 -75.48,-176.89l-49.56 41.17z"/>
    </clipPath>
      <clipPath id="id1">
       <path d="M289.94 612.48l-4.12 0c-13.62,-13.38 -147.79,-145.58 -118.11,-133.99 31.26,12.2 76.24,10.67 104.45,-15.25 28.21,-25.92 3.81,-93.78 3.81,-93.78l49.56 -41.17c0,0 99.12,99.12 75.48,176.89 -21.07,69.33 -95.24,101.21 -111.08,107.31z"/>
      </clipPath>
      <clipPath id="id2">
       <path d="M275.98 369.46c0,0 24.4,67.86 -3.81,93.78 -28.21,25.92 -73.19,27.45 -104.45,15.25 -31.26,-12.2 119.24,135.1 119.24,135.1 0,0 90.43,-30.64 114.07,-108.41 23.64,-77.77 -75.48,-176.89 -75.48,-176.89l-49.56 41.17z"/>
      </clipPath>
     <clipPath id="id3">
      <path d="M206.69 532.06l2.18 2.31 0.95 1 2.08 2.19 1.46 1.54 0.53 0.55 2.62 2.74 2.13 2.23 0.59 0.62 2.27 2.36 1.4 1.45 1.17 1.21 1.72 1.78 2.14 2.2 0.77 0.79 2.25 2.32 2.09 2.14 1.47 1.51 0.95 0.97 1.02 1.04 2.64 2.7 0.94 0.95 2.65 2.69 0.07 0.07 3.21 3.25 0.25 0.25 1.23 1.25 1.08 1.09 2.42 2.45 1.71 1.73 4.32 4.35 0.93 0.94 1.04 1.05 1.89 1.89 4.42 4.42 2.35 2.34 2.01 2.01 0.23 0.23 1.68 1.68 5.48 5.44 0.52 0.52 2.08 2.05 3.48 3.43 1.45 1.42 2.02 1.99 0.16 0.16 0.14 0.14 0.08 0.08c0,0 90.43,-30.64 114.07,-108.41 0.35,-1.15 0.67,-2.3 0.96,-3.46l0.08 -0.29c0.28,-1.12 0.54,-2.25 0.77,-3.38l0.07 -0.34c0.22,-1.1 0.42,-2.2 0.6,-3.3l0.08 -0.49c0.17,-1.08 0.32,-2.17 0.44,-3.26l0.06 -0.53c0.12,-1.08 0.22,-2.16 0.3,-3.24l0.04 -0.54c0.08,-1.08 0.13,-2.16 0.17,-3.25l0.02 -0.59c0.03,-1.1 0.05,-2.19 0.04,-3.29l-0 -0.43c-0.01,-1.13 -0.04,-2.26 -0.09,-3.39l-0.02 -0.43c-0.05,-1.14 -0.12,-2.29 -0.21,-3.43l-0.03 -0.32c-0.1,-1.17 -0.21,-2.34 -0.34,-3.51l-0.01 -0.11c-0.14,-1.19 -0.29,-2.39 -0.47,-3.58l-0.04 -0.31c-0.17,-1.16 -0.36,-2.33 -0.57,-3.49l-0.06 -0.37c-0.21,-1.14 -0.43,-2.28 -0.67,-3.42l-0.1 -0.48c-0.23,-1.1 -0.48,-2.19 -0.74,-3.29l-0.15 -0.61c-0.26,-1.09 -0.54,-2.17 -0.83,-3.26l-0.15 -0.57c-0.29,-1.09 -0.6,-2.18 -0.92,-3.27l-0.17 -0.56c-0.32,-1.08 -0.65,-2.16 -1,-3.23l-0.19 -0.59c-0.35,-1.09 -0.72,-2.17 -1.09,-3.26l-0.16 -0.47c-0.37,-1.07 -0.76,-2.14 -1.15,-3.2l-0.21 -0.56c-0.37,-0.98 -0.75,-1.97 -1.13,-2.95l-0.29 -0.75c-0.37,-0.93 -0.75,-1.85 -1.13,-2.77l-0.43 -1.02c-0.38,-0.91 -0.78,-1.82 -1.18,-2.73l-0.39 -0.88c-0.41,-0.93 -0.83,-1.85 -1.26,-2.77l-0.44 -0.96c-0.42,-0.9 -0.84,-1.79 -1.27,-2.69l-0.5 -1.02c-0.43,-0.89 -0.87,-1.77 -1.31,-2.65l-0.5 -0.99c-0.44,-0.86 -0.88,-1.72 -1.32,-2.57l-0.58 -1.1c-0.44,-0.83 -0.88,-1.65 -1.32,-2.47l-0.57 -1.04 -1.24 -2.24 -0.78 -1.38 -0.91 -1.6 -1.14 -1.97 -0.85 -1.44 -1.2 -2 -0.8 -1.32 -1.4 -2.26 -0.6 -0.95c-0.54,-0.86 -1.08,-1.71 -1.62,-2.56l-0.48 -0.75c-0.7,-1.08 -1.4,-2.16 -2.1,-3.22l-36.62 -6.53c0,0 24.27,202.45 -125.26,156.54z"/>
     </clipPath>
     <clipPath id="id4">
      <path d="M275.98 369.46c0,0 24.4,67.86 -3.81,93.78 -28.21,25.92 -73.19,27.45 -104.45,15.25 -31.26,-12.2 119.24,135.1 119.24,135.1 0,0 90.43,-30.64 114.07,-108.41 23.64,-77.77 -75.48,-176.89 -75.48,-176.89l-49.56 41.17z"/>
     </clipPath>
      <clipPath id="id5">
       <path d="M275.98 369.46c0,0 24.4,67.86 -3.81,93.78 -28.21,25.92 -73.19,27.45 -104.45,15.25 -31.26,-12.2 119.24,135.1 119.24,135.1 0,0 90.43,-30.64 114.07,-108.41 23.64,-77.77 -75.48,-176.89 -75.48,-176.89l-49.56 41.17z"/>
      </clipPath>
      <clipPath id="id6">
       <path d="M275.98 369.46c0,0 24.4,67.86 -3.81,93.78 -28.21,25.92 -73.19,27.45 -104.45,15.25 -31.26,-12.2 119.24,135.1 119.24,135.1 0,0 90.43,-30.64 114.07,-108.41 23.64,-77.77 -75.48,-176.89 -75.48,-176.89l-49.56 41.17z"/>
      </clipPath>
    <clipPath id="id7">
     <path d="M56.01 272.97c0,0 -17.54,65.19 49.94,128.09 67.48,62.9 115.89,117.8 115.89,117.8 0,0 157.82,126.57 31.26,303.45 0,0 4.57,-56.42 -30.5,-102.17 -35.07,-45.75 -170.02,-170.79 -170.02,-170.79 0,0 -112.84,-133.43 3.43,-276.38z"/>
    </clipPath>
      <clipPath id="id8">
       <path d="M288.92 613.96l-168.23 0c-36.55,-35.37 -68.1,-64.6 -68.1,-64.6 0,0 -112.84,-133.43 3.43,-276.38 0,0 -17.54,65.19 49.94,128.09 67.48,62.9 115.89,117.8 115.89,117.8 0,0 44.22,35.47 67.07,95.1z"/>
      </clipPath>
      <clipPath id="id9">
       <path d="M56.01 272.97c0,0 -17.54,65.19 49.94,128.09 67.48,62.9 115.89,117.8 115.89,117.8 0,0 157.82,126.57 31.26,303.45 0,0 4.57,-56.42 -30.5,-102.17 -35.07,-45.75 -170.02,-170.79 -170.02,-170.79 0,0 -112.84,-133.43 3.43,-276.38z"/>
      </clipPath>
  <linearGradient id="id10" gradientUnits="userSpaceOnUse" x1="303.81" y1="-10.22" x2="-28.61" y2="621.07">
   <stop offset="0" style="stop-opacity:1; stop-color:#31BBFA"/>
   <stop offset="0.231373" style="stop-opacity:1; stop-color:#1987E2"/>
   <stop offset="1" style="stop-opacity:1; stop-color:#0053C9"/>
  </linearGradient>
  <linearGradient id="id11" gradientUnits="objectBoundingBox" x1="6.87725%" y1="2.91699%" x2="95.6683%" y2="98.9612%">
   <stop offset="0" style="stop-opacity:1; stop-color:#EA5627"/>
   <stop offset="0.639216" style="stop-opacity:1; stop-color:#F28E1C"/>
   <stop offset="1" style="stop-opacity:1; stop-color:#FBC710"/>
  </linearGradient>
  <linearGradient id="id12" gradientUnits="userSpaceOnUse" x1="347.26" y1="447.63" x2="1.37" y2="434.25">
   <stop offset="0" style="stop-opacity:1; stop-color:#2193D4"/>
   <stop offset="0.411765" style="stop-opacity:1; stop-color:#1173CF"/>
   <stop offset="1" style="stop-opacity:1; stop-color:#0053C9"/>
  </linearGradient>
  <linearGradient id="id13" gradientUnits="userSpaceOnUse" xlink:href="#id12" x1="55.06" y1="380.76" x2="306.65" y2="377.83">
  </linearGradient>
  <linearGradient id="id14" gradientUnits="userSpaceOnUse" xlink:href="#id10" x1="303.81" y1="-10.23" x2="-28.61" y2="621.07">
  </linearGradient>
  <linearGradient id="id15" gradientUnits="userSpaceOnUse" x1="634.38" y1="-126.82" x2="77.63" y2="644.58">
   <stop offset="0" style="stop-opacity:1; stop-color:#F98700"/>
   <stop offset="0.65098" style="stop-opacity:1; stop-color:#F66611"/>
   <stop offset="1" style="stop-opacity:1; stop-color:#F24523"/>
  </linearGradient>
  <linearGradient id="id16" gradientUnits="userSpaceOnUse" x1="346.13" y1="436.13" x2="189.44" y2="573.37">
   <stop offset="0" style="stop-opacity:1; stop-color:#FA8C01"/>
   <stop offset="0.478431" style="stop-opacity:1; stop-color:#F66912"/>
   <stop offset="1" style="stop-opacity:1; stop-color:#F24523"/>
  </linearGradient>
  <linearGradient id="id17" gradientUnits="userSpaceOnUse" x1="25.24" y1="349.58" x2="339.36" y2="832.96">
   <stop offset="0" style="stop-opacity:1; stop-color:#0053C9"/>
   <stop offset="1" style="stop-opacity:1; stop-color:#31BBFA"/>
  </linearGradient>
  <linearGradient id="id18" gradientUnits="userSpaceOnUse" x1="441.53" y1="-120.08" x2="-28.61" y2="559.61">
   <stop offset="0" style="stop-opacity:1; stop-color:#0053C9"/>
   <stop offset="0.34902" style="stop-opacity:1; stop-color:#005DCB"/>
   <stop offset="1" style="stop-opacity:1; stop-color:#0168CD"/>
  </linearGradient>
  <linearGradient id="id19" gradientUnits="userSpaceOnUse" x1="537.49" y1="22.55" x2="-86.78" y2="868">
   <stop offset="0" style="stop-opacity:1; stop-color:#F26635"/>
   <stop offset="0.65098" style="stop-opacity:1; stop-color:#F2562C"/>
   <stop offset="1" style="stop-opacity:1; stop-color:#F24523"/>
  </linearGradient>
  <linearGradient id="id20" gradientUnits="userSpaceOnUse" xlink:href="#id18" x1="441.53" y1="-120.08" x2="-28.61" y2="559.6">
  </linearGradient>
  <linearGradient id="id21" gradientUnits="userSpaceOnUse" x1="449.15" y1="906.96" x2="-96.75" y2="300.07">
   <stop offset="0" style="stop-opacity:1; stop-color:#1576AE"/>
   <stop offset="0.65098" style="stop-opacity:1; stop-color:#0B65BB"/>
   <stop offset="1" style="stop-opacity:1; stop-color:#0053C9"/>
  </linearGradient>
  <linearGradient id="id22" gradientUnits="userSpaceOnUse" xlink:href="#id16" x1="165.71" y1="619.48" x2="600.3" y2="387.7">
  </linearGradient>
 </defs>
 <g id="Layer_x0020_1">
  <metadata id="CorelCorpID_0Corel-Layer"/>
  <g id="_1445996725744">
   <path class="fil0" d="M275.98 369.46c0,0 24.4,67.86 -3.81,93.78 -28.21,25.92 -73.19,27.45 -104.45,15.25 -31.26,-12.2 119.24,135.1 119.24,135.1 0,0 90.43,-30.64 114.07,-108.41 23.64,-77.77 -75.48,-176.89 -75.48,-176.89l-49.56 41.17z"/>
   <g style="clip-path:url(#id0)">
    <g>
     <g>
     </g>
     <g style="clip-path:url(#id1)">
      <image x="67.23" y="-26.5" width="388.47" height="638.98" xlink:href="logo hmppti_Images\logo hmppti_ImgID1.png"/>
     </g>
     <g style="clip-path:url(#id2)">
     </g>
     <path class="fil1" d="M180.69 0c0,0 -17.54,65.19 49.94,128.09 67.48,62.9 115.89,117.8 115.89,117.8 0,0 157.82,126.57 31.26,303.45 0,0 4.57,-56.42 -30.5,-102.17 -35.07,-45.75 -170.02,-170.79 -170.02,-170.79 0,0 -112.84,-133.43 3.43,-276.38z"/>
     <path class="fil2" d="M206.66 532.04c35.61,37.83 80.28,81.55 80.28,81.55 0,0 90.43,-30.64 114.07,-108.41 12.46,-41 -9.2,-87.93 -32.47,-123.15l-36.62 -6.53c0,0 24.27,202.45 -125.26,156.54z"/>
    </g>
    <g style="clip-path:url(#id3)">
     <g>
      <g>
      </g>
      <path id="1" class="fil1" d="M180.69 0c0,0 -17.54,65.19 49.94,128.09 67.48,62.9 115.89,117.8 115.89,117.8 0,0 157.82,126.57 31.26,303.45 0,0 4.57,-56.42 -30.5,-102.17 -35.07,-45.75 -170.02,-170.79 -170.02,-170.79 0,0 -112.84,-133.43 3.43,-276.38z"/>
     </g>
    </g>
    <g style="clip-path:url(#id4)">
     <path class="fil3" d="M206.66 532.04c35.61,37.83 80.28,81.55 80.28,81.55 0,0 90.43,-30.64 114.07,-108.41 12.46,-41 -9.2,-87.93 -32.47,-123.15l-36.62 -6.53c0,0 24.27,202.45 -125.26,156.54z"/>
     <g>
     </g>
     <g style="clip-path:url(#id5)">
      <image x="64.24" y="-25.27" width="389.05" height="639.12" xlink:href="logo hmppti_Images\logo hmppti_ImgID2.png"/>
     </g>
     <g style="clip-path:url(#id6)">
     </g>
     <g>
      <path class="fil1" d="M180.69 0c0,0 -17.54,65.19 49.94,128.09 67.48,62.9 115.89,117.8 115.89,117.8 0,0 157.82,126.57 31.26,303.45 0,0 4.57,-56.42 -30.5,-102.17 -35.07,-45.75 -170.02,-170.79 -170.02,-170.79 0,0 -112.84,-133.43 3.43,-276.38z"/>
      <path class="fil4" d="M377.78 549.34c0,0 6.12,-65.18 -51.44,-126.56 -67.48,-62.9 -117.03,-116.3 -117.03,-116.3 0,0 -162.81,-139.51 -28.62,-306.48 0,0 -43.95,128.45 61.27,232.14 105.2,103.68 176.96,145.74 144.92,305.37 -2.87,3.93 -5.88,7.88 -9.1,11.83z"/>
     </g>
    </g>
   </g>
   <path class="fil3" d="M275.98 369.46c0,0 24.4,67.86 -3.81,93.78 -28.21,25.92 -73.19,27.45 -104.45,15.25 -31.26,-12.2 119.24,135.1 119.24,135.1 0,0 90.43,-30.64 114.07,-108.41 23.64,-77.77 -75.48,-176.89 -75.48,-176.89l-49.56 41.17z"/>
   <rect class="fil5" x="34.66" y="346.05" width="211.96" height="116.03" rx="49.06" ry="58.02"/>
   <path class="fil6" d="M246.62 404.07l0 0 -211.95 0 0 0c0,31.91 26.1,58.02 58.02,58.02l95.92 0c31.91,0 58.02,-26.11 58.02,-58.02z"/>
   <path class="fil7" d="M56.01 272.97c0,0 -17.54,65.19 49.94,128.09 67.48,62.9 115.89,117.8 115.89,117.8 0,0 157.82,126.57 31.26,303.45 0,0 4.57,-56.42 -30.5,-102.17 -35.07,-45.75 -170.02,-170.79 -170.02,-170.79 0,0 -112.84,-133.43 3.43,-276.38z"/>
   <g style="clip-path:url(#id7)">
    <g>
     <path id="1" class="fil8" d="M56.01 272.97c0,0 -17.54,65.19 49.94,128.09 67.48,62.9 115.89,117.8 115.89,117.8 0,0 157.82,126.57 31.26,303.45 0,0 43.95,-128.45 -61.27,-232.14 -105.21,-103.68 -176.96,-145.74 -144.92,-305.37 2.87,-3.93 5.88,-7.88 9.09,-11.83z"/>
     <g>
     </g>
     <g style="clip-path:url(#id8)">
      <image x="-27.16" y="-25.03" width="388.47" height="638.99" xlink:href="logo hmppti_Images\logo hmppti_ImgID3.png"/>
     </g>
     <g style="clip-path:url(#id9)">
     </g>
     <g>
      <path class="fil9" d="M52.58 549.36c0,0 -17.54,-65.19 49.94,-128.09 67.48,-62.9 115.89,-117.8 115.89,-117.8 0,0 157.82,-126.57 31.26,-303.45 0,0 4.57,56.42 -30.5,102.17 -35.07,45.75 -170.02,170.79 -170.02,170.79 0,0 -112.84,133.43 3.43,276.38z"/>
      <path class="fil10" d="M52.58 549.36c0,0 -17.54,-65.19 49.94,-128.09 67.48,-62.9 115.89,-117.8 115.89,-117.8 0,0 157.82,-126.57 31.26,-303.45 0,0 43.95,128.45 -61.27,232.14 -105.21,103.68 -176.96,145.74 -144.92,305.37 2.87,3.93 5.88,7.88 9.09,11.83z"/>
     </g>
    </g>
   </g>
   <path class="fil3" d="M56.01 272.97c0,0 -17.54,65.19 49.94,128.09 67.48,62.9 115.89,117.8 115.89,117.8 0,0 157.82,126.57 31.26,303.45 0,0 4.57,-56.42 -30.5,-102.17 -35.07,-45.75 -170.02,-170.79 -170.02,-170.79 0,0 -112.84,-133.43 3.43,-276.38z"/>
   <g>
    <path class="fil1" d="M180.69 0c0,0 -17.54,65.19 49.94,128.09 67.48,62.9 115.89,117.8 115.89,117.8 0,0 157.82,126.57 31.26,303.45 0,0 4.57,-56.42 -30.5,-102.17 -35.07,-45.75 -170.02,-170.79 -170.02,-170.79 0,0 -112.84,-133.43 3.43,-276.38z"/>
    <path class="fil11" d="M377.78 549.34c0,0 6.12,-65.18 -51.44,-126.56 -67.48,-62.9 -117.03,-116.3 -117.03,-116.3 0,0 -162.81,-139.51 -28.62,-306.48 0,0 -43.95,128.45 61.27,232.14 105.2,103.68 176.96,145.74 144.92,305.37 -2.87,3.93 -5.88,7.88 -9.1,11.83z"/>
   </g>
   <g>
    <path class="fil12" d="M52.58 549.36c0,0 -17.54,-65.19 49.94,-128.09 67.48,-62.9 115.89,-117.8 115.89,-117.8 0,0 157.82,-126.57 31.26,-303.45 0,0 4.57,56.42 -30.5,102.17 -35.07,45.75 -170.02,170.79 -170.02,170.79 0,0 -112.84,133.43 3.43,276.38z"/>
    <path class="fil13" d="M52.58 549.36c0,0 -17.54,-65.19 49.94,-128.09 67.48,-62.9 115.89,-117.8 115.89,-117.8 0,0 157.82,-126.57 31.26,-303.45 0,0 43.95,128.45 -61.27,232.14 -105.21,103.68 -176.96,145.74 -144.92,305.37 2.87,3.93 5.88,7.88 9.09,11.83z"/>
   </g>
  </g>
 </g>
</svg>
