<?xml version="1.0" encoding="UTF-8"?>
<!DOCTYPE svg PUBLIC "-//W3C//DTD SVG 1.1//EN" "http://www.w3.org/Graphics/SVG/1.1/DTD/svg11.dtd">
<!-- Creator: CorelDRAW 2020 (64-Bit) -->
<svg xmlns="http://www.w3.org/2000/svg" xml:space="preserve" width="1.80037in" height="1.96478in" version="1.1" style="shape-rendering:geometricPrecision; text-rendering:geometricPrecision; image-rendering:optimizeQuality; fill-rule:evenodd; clip-rule:evenodd"
viewBox="0 0 466.2 508.78"
 xmlns:xlink="http://www.w3.org/1999/xlink"
 xmlns:xodm="http://www.corel.com/coreldraw/odm/2003">
 <defs>
  <style type="text/css">
   <![CDATA[
    .fil1 {fill:#1578B1}
    .fil2 {fill:#2193D4}
    .fil0 {fill:#31A3E1}
    .fil5 {fill:#9E6C0B}
    .fil4 {fill:#E6B453}
    .fil3 {fill:#E99E1E}
   ]]>
  </style>
 </defs>
 <g id="Layer_x0020_1">
  <metadata id="CorelCorpID_0Corel-Layer"/>
  <g id="_1445991843024">
   <g>
    <path class="fil0" d="M221.42 0c0,0 -10.96,30.37 -36.54,45.61 -25.58,15.23 -48.24,27.75 -73.23,36.59 -24.99,8.84 -76.62,33.43 -97.19,56.35 0,0 -16.36,15.88 -14.27,61.73 2.09,45.86 0,119.67 0,119.67 0,0 16.94,-42.42 75.22,-64.19 58.28,-21.77 93,-40.08 113.53,-56.15 20.53,-16.07 31.37,-38.21 31.43,-46.91l1.05 -152.71z"/>
    <path class="fil1" d="M221.42 508.78c0,0 -10.96,-30.37 -36.54,-45.61 -25.58,-15.23 -48.24,-27.75 -73.23,-36.59 -24.99,-8.84 -76.62,-33.43 -97.19,-56.35 0,0 -16.36,-15.88 -14.27,-61.73 2.09,-45.86 0,-119.67 0,-119.67 0,0 16.94,42.42 75.22,64.19 58.28,21.77 93,40.08 113.53,56.15 20.53,16.07 31.37,38.21 31.43,46.91l1.05 152.71z"/>
    <path class="fil2" d="M0.48 179.3c0,0 2.39,41.85 77.36,74.5 0,0 -52.2,15.29 -76.8,64.15l-0.55 -138.65z"/>
   </g>
   <g>
    <path class="fil3" d="M244.79 0c0,0 10.96,30.37 36.54,45.61 25.58,15.23 48.24,27.75 73.23,36.59 24.99,8.84 76.62,33.43 97.19,56.35 0,0 16.36,15.88 14.27,61.73 -2.09,45.86 0,119.67 0,119.67 0,0 -16.94,-42.42 -75.22,-64.19 -58.28,-21.77 -93,-40.08 -113.53,-56.15 -20.53,-16.07 -31.37,-38.21 -31.43,-46.91l-1.05 -152.71z"/>
    <path class="fil4" d="M244.79 508.78c0,0 10.96,-30.37 36.54,-45.61 25.58,-15.23 48.24,-27.75 73.23,-36.59 24.99,-8.84 76.62,-33.43 97.19,-56.35 0,0 16.36,-15.88 14.27,-61.73 -2.09,-45.86 0,-119.67 0,-119.67 0,0 -16.94,42.42 -75.22,64.19 -58.28,21.77 -93,40.08 -113.53,56.15 -20.53,16.07 -31.37,38.21 -31.43,46.91l-1.05 152.71z"/>
    <path class="fil5" d="M465.93 180.76c0,0 -2.34,40.96 -75.73,72.93 0,0 51.09,14.97 75.18,62.8l0.54 -135.72z"/>
   </g>
  </g>
 </g>
</svg>
