<?xml version="1.0" encoding="UTF-8"?>
<!DOCTYPE svg PUBLIC "-//W3C//DTD SVG 1.1//EN" "http://www.w3.org/Graphics/SVG/1.1/DTD/svg11.dtd">
<!-- Creator: CorelDRAW 2020 (64-Bit) -->
<svg xmlns="http://www.w3.org/2000/svg" xml:space="preserve" width="1.62244in" height="0.787476in" version="1.1" style="shape-rendering:geometricPrecision; text-rendering:geometricPrecision; image-rendering:optimizeQuality; fill-rule:evenodd; clip-rule:evenodd"
viewBox="0 0 97.74 47.44"
 xmlns:xlink="http://www.w3.org/1999/xlink"
 xmlns:xodm="http://www.corel.com/coreldraw/odm/2003">
 <defs>
  <style type="text/css">
   <![CDATA[
    .fil0 {fill:#0F9D58}
    .fil1 {fill:#4285F4}
    .fil2 {fill:#EA4335}
    .fil3 {fill:#FBBC04}
   ]]>
  </style>
 </defs>
 <g id="Layer_x0020_1">
  <metadata id="CorelCorpID_0Corel-Layer"/>
  <g id="_1445821894400">
   <path class="fil0" d="M74.15 23.72c2.76,1.34 5.85,3.32 8.57,4.88 3.47,1.99 5.28,3.73 10.22,2.37 3.66,-1.42 5.76,-5.72 4.37,-9.89 -1.16,-3.5 -4.79,-5.07 -8.34,-7.01 -4.37,-2.38 -21.92,-13.05 -24.23,-13.74 -2.23,-0.67 -4.68,-0.19 -6.26,0.76 -3.11,1.86 -5.12,6.3 -2.94,10.46 1.57,3 5.57,4.54 8.83,6.52 0.86,0.52 1.56,0.91 2.44,1.4 0.91,0.49 1.5,0.91 2.42,1.41 0.88,0.48 1.56,0.92 2.43,1.41 0.88,0.49 1.61,1.02 2.49,1.44z"/>
   <path class="fil1" d="M5.07 16.35c-1.57,0.39 -3.39,2.23 -4.11,3.57 -1.94,3.62 -0.92,8.07 2.94,10.54 4.08,2.6 10.23,5.79 14.59,8.43l12.16 7.03c2.83,1.55 5.57,2.3 8.75,0.33 3.67,-2.28 4.77,-7.1 2.83,-10.5 -1.08,-1.89 -2.14,-2.57 -4.03,-3.65 -1.59,-0.91 -3.22,-1.93 -4.86,-2.82l-9.7 -5.63c-1.19,-0.43 -3.07,-1.69 -4.31,-2.38 -1.43,-0.81 -2.7,-1.61 -4.21,-2.45 -3.34,-1.87 -5.21,-3.66 -10.07,-2.47z"/>
   <path class="fil2" d="M5.07 16.35c4.86,-1.2 6.72,0.59 10.07,2.47 1.5,0.84 2.77,1.64 4.21,2.45 1.24,0.7 3.12,1.95 4.31,2.38l11.58 -6.63c2.69,-1.5 5.59,-2.81 6.97,-5.35 2.49,-4.58 0.09,-9.95 -4.89,-11.4 -0.53,-0.16 -1.04,-0.25 -1.53,-0.28l-1.05 0c-2.61,0.2 -4.61,1.85 -6.43,2.83 -1.26,0.68 -2.64,1.48 -3.85,2.21 -1.33,0.8 -2.6,1.48 -3.96,2.3l-13.46 7.75c-0.57,0.32 -1.65,0.86 -1.96,1.27z"/>
   <path class="fil3" d="M92.94 30.97c-4.93,1.36 -6.75,-0.38 -10.22,-2.37 -2.71,-1.55 -5.81,-3.54 -8.57,-4.88l-15.47 8.88c-2.38,1.42 -4.61,4.32 -3.96,8.03 0.96,5.48 6.23,8.03 10.87,6.15l23.47 -13.49c0.7,-0.42 1.18,-0.7 1.92,-1.11 0.52,-0.29 1.66,-0.89 1.96,-1.21z"/>
  </g>
 </g>
</svg>
