<?xml version="1.0" encoding="UTF-8"?>
<!DOCTYPE svg PUBLIC "-//W3C//DTD SVG 1.1//EN" "http://www.w3.org/Graphics/SVG/1.1/DTD/svg11.dtd">
<!-- Creator: CorelDRAW 2020 (64-Bit) -->
<svg xmlns="http://www.w3.org/2000/svg" xml:space="preserve" width="0.757559in" height="0.944591in" version="1.1" style="shape-rendering:geometricPrecision; text-rendering:geometricPrecision; image-rendering:optimizeQuality; fill-rule:evenodd; clip-rule:evenodd"
viewBox="0 0 4.74 5.91"
 xmlns:xlink="http://www.w3.org/1999/xlink"
 xmlns:xodm="http://www.corel.com/coreldraw/odm/2003">
 <defs>
  <style type="text/css">
   <![CDATA[
    .fil0 {fill:#666666;fill-rule:nonzero}
   ]]>
  </style>
 </defs>
 <g id="Layer_x0020_1">
  <metadata id="CorelCorpID_0Corel-Layer"/>
  <path class="fil0" d="M4.67 5.91l-1.34 0c-0.57,-0.89 -1.23,-1.75 -1.81,-2.61l0.74 -0.07c0.1,-0.01 0.17,-0.11 0.25,-0.18 0.21,-0.21 0.32,-0.49 0.32,-0.84 0,-0.3 -0.09,-0.54 -0.26,-0.71 -0.17,-0.18 -0.41,-0.26 -0.73,-0.26l-0.59 0 -0.22 -0.29 1.1 0c0.21,0 0.41,0.02 0.59,0.06 0.18,0.04 0.35,0.11 0.5,0.21 0.14,0.09 0.26,0.21 0.35,0.36 0.09,0.15 0.13,0.33 0.13,0.54 0,0.19 -0.03,0.36 -0.09,0.51 -0.06,0.15 -0.15,0.27 -0.26,0.38 -0.1,0.1 -0.23,0.19 -0.38,0.26 -0.15,0.07 -0.31,0.14 -0.49,0.19 0.24,0.32 0.45,0.6 0.61,0.82 0.16,0.22 0.36,0.49 0.6,0.81 0.1,0.14 0.19,0.24 0.28,0.31 0.21,0.16 0.26,0.2 0.48,0.27 0.1,0.03 0.19,0.06 0.28,0.08l0 0.16 -0.06 0zm-2.45 -2.75l-0.74 0.07c-0.1,0.01 -0.17,0.11 -0.25,0.18 -0.21,0.21 -0.32,0.49 -0.32,0.84 0,0.3 0.09,0.54 0.26,0.71 0.17,0.18 0.41,0.26 0.73,0.26l0.59 0 0.22 0.29 -1.1 0c-0.21,0 -0.41,-0.02 -0.59,-0.06 -0.18,-0.04 -0.35,-0.11 -0.5,-0.21 -0.14,-0.09 -0.26,-0.21 -0.35,-0.36 -0.09,-0.15 -0.13,-0.33 -0.13,-0.54 0,-0.19 0.03,-0.36 0.09,-0.51 0.06,-0.15 0.15,-0.27 0.26,-0.38 0.1,-0.1 0.23,-0.19 0.38,-0.26 0.15,-0.07 0.31,-0.14 0.49,-0.19 -0.42,-0.56 -0.82,-1.12 -1.26,-1.66l0.43 -1.26 0.02 -0.06 0.15 0.05c-0.01,0.09 -0.01,0.19 -0.01,0.29 0,0.24 0.01,0.3 0.1,0.55 0.04,0.1 0.1,0.22 0.2,0.36 0.44,0.64 0.9,1.26 1.33,1.91z"/>
 </g>
</svg>
