<?xml version="1.0" encoding="UTF-8"?>
<!DOCTYPE svg PUBLIC "-//W3C//DTD SVG 1.1//EN" "http://www.w3.org/Graphics/SVG/1.1/DTD/svg11.dtd">
<!-- Creator: CorelDRAW 2020 (64-Bit) -->
<svg xmlns="http://www.w3.org/2000/svg" xml:space="preserve" width="438.88in" height="547.233in" version="1.1" style="shape-rendering:geometricPrecision; text-rendering:geometricPrecision; image-rendering:optimizeQuality; fill-rule:evenodd; clip-rule:evenodd"
viewBox="0 0 203827.77 254149.94"
 xmlns:xlink="http://www.w3.org/1999/xlink"
 xmlns:xodm="http://www.corel.com/coreldraw/odm/2003">
 <defs>
  <style type="text/css">
   <![CDATA[
    .fil0 {fill:black;fill-rule:nonzero}
   ]]>
  </style>
 </defs>
 <g id="Layer_x0020_1">
  <metadata id="CorelCorpID_0Corel-Layer"/>
  <path class="fil0" d="M201084.06 254149.94l-57423.87 0c-24393.78,-38263.45 -53110.6,-75062.97 -77859.42,-112215.76l31878.15 -2885.89c4282.82,-388.08 7321.65,-4574.35 10552.73,-7692.71 9182.67,-8862.51 13791.9,-20866.74 13791.9,-36094.8 0,-12868.98 -3690.74,-23123.01 -11125.11,-30660.18 -7383.32,-7536.26 -17843.02,-11330.79 -31327.28,-11330.79l-25532.22 0 -9454.52 -12304.62 47446.12 0c8972.49,0 17430.82,929.17 25327.46,2768.75 7945.86,1851.17 15074.28,4819.34 21482.86,8972.49 6203.75,3998.38 11176.94,9228.3 14868.6,15688.71 3691.66,6460.41 5537.49,14253.32 5537.49,23327.77 0,8255.26 -1230.55,15483.88 -3742.64,21790.5 -2513,6306.55 -6255.64,11792.22 -11125.96,16406.79 -4511.77,4306.94 -9946.39,8049.57 -16253.01,11176.94 -6306.55,3179.26 -13279.43,5845.13 -20918.56,8049.58 10510.75,13894.77 19277.56,25636.01 26199.39,35171.88 6972.88,9484.96 15483.94,21072.41 25635.09,34659.48 4409.81,6049.96 8371.56,10440.93 11946.91,13279.43 8827.64,7008.67 11006.14,8401.94 20797.83,11720.7 4145.07,1404.94 8127.42,2524.6 12041.77,3455.6l0 6676.77 -2743.71 39.38zm-105476.34 -118492.85l-31878.15 2885.96c-4282.82,388.08 -7321.65,4574.28 -10552.73,7692.72 -9182.67,8862.51 -13791.9,20866.67 -13791.9,36094.79 0,12868.98 3690.82,23123.01 11125.11,30660.18 7383.32,7536.26 17843.02,11330.72 31327.28,11330.72l25532.22 0 9454.52 12304.69 -47446.12 0c-8972.49,0 -17430.75,-929.17 -25327.46,-2768.75 -7945.86,-1851.17 -15074.28,-4819.41 -21482.86,-8972.49 -6203.75,-3998.45 -11176.94,-9228.3 -14868.6,-15688.71 -3691.66,-6460.4 -5537.49,-14253.32 -5537.49,-23327.77 0,-8255.25 1230.55,-15483.88 3742.64,-21790.49 2513,-6306.62 6255.64,-11792.22 11125.96,-16406.79 4511.77,-4307.01 9946.39,-8049.65 16253.01,-11177.01 6306.62,-3179.19 13279.43,-5845.13 20918.56,-8049.57 -18072.89,-23892.07 -35436.63,-48129.33 -54201.72,-71455.34l18377.85 -54401.98 914.9 -2587.25 6327.15 2137.37c-372.05,4006.47 -585.74,8137.26 -581.31,12513.95 11.67,10338.97 634.96,12848.38 4448.27,23454.77 1543.54,4295.33 4436.6,9454.52 8757.88,15568.89 18914.37,27450.48 38884.99,54241.87 57362.97,81982.12z"/>
 </g>
</svg>
