<?xml version="1.0" encoding="UTF-8"?>
<!DOCTYPE svg PUBLIC "-//W3C//DTD SVG 1.1//EN" "http://www.w3.org/Graphics/SVG/1.1/DTD/svg11.dtd">
<!-- Creator: CorelDRAW 2020 (64-Bit) -->
<svg xmlns="http://www.w3.org/2000/svg" xml:space="preserve" width="1.13333in" height="1.13333in" version="1.1" style="shape-rendering:geometricPrecision; text-rendering:geometricPrecision; image-rendering:optimizeQuality; fill-rule:evenodd; clip-rule:evenodd"
viewBox="0 0 10.82 10.82"
 xmlns:xlink="http://www.w3.org/1999/xlink"
 xmlns:xodm="http://www.corel.com/coreldraw/odm/2003">
 <defs>
  <style type="text/css">
   <![CDATA[
    .fil0 {fill:white}
    .fil1 {fill:black;fill-rule:nonzero}
   ]]>
  </style>
 </defs>
 <g id="Layer_x0020_1">
  <metadata id="CorelCorpID_0Corel-Layer"/>
  <rect class="fil0" width="10.82" height="10.82" rx="1.27" ry="1.27"/>
  <path class="fil1" d="M9.16 9.77l-2.04 0c-0.87,-1.36 -1.88,-2.66 -2.76,-3.98l1.13 -0.1c0.15,-0.01 0.26,-0.16 0.37,-0.27 0.33,-0.31 0.49,-0.74 0.49,-1.28 0,-0.46 -0.13,-0.82 -0.39,-1.09 -0.26,-0.27 -0.63,-0.4 -1.11,-0.4l-0.91 0 -0.34 -0.44 1.68 0c0.32,0 0.62,0.03 0.9,0.1 0.28,0.07 0.53,0.17 0.76,0.32 0.22,0.14 0.4,0.33 0.53,0.56 0.13,0.23 0.2,0.51 0.2,0.83 0,0.29 -0.04,0.55 -0.13,0.77 -0.09,0.22 -0.22,0.42 -0.39,0.58 -0.16,0.15 -0.35,0.29 -0.58,0.4 -0.22,0.11 -0.47,0.21 -0.74,0.29 0.37,0.49 0.68,0.91 0.93,1.25 0.25,0.34 0.55,0.75 0.91,1.23 0.16,0.21 0.3,0.37 0.42,0.47 0.31,0.25 0.39,0.3 0.74,0.42 0.15,0.05 0.29,0.09 0.43,0.12l0 0.24 -0.1 0zm-3.74 -4.2l-1.13 0.1c-0.15,0.01 -0.26,0.16 -0.37,0.27 -0.33,0.31 -0.49,0.74 -0.49,1.28 0,0.46 0.13,0.82 0.39,1.09 0.26,0.27 0.63,0.4 1.11,0.4l0.91 0 0.34 0.44 -1.68 0c-0.32,0 -0.62,-0.03 -0.9,-0.1 -0.28,-0.07 -0.53,-0.17 -0.76,-0.32 -0.22,-0.14 -0.4,-0.33 -0.53,-0.56 -0.13,-0.23 -0.2,-0.51 -0.2,-0.83 0,-0.29 0.04,-0.55 0.13,-0.77 0.09,-0.22 0.22,-0.42 0.39,-0.58 0.16,-0.15 0.35,-0.29 0.58,-0.4 0.22,-0.11 0.47,-0.21 0.74,-0.29 -0.64,-0.85 -1.26,-1.71 -1.92,-2.54l0.65 -1.93 0.03 -0.09 0.22 0.08c-0.01,0.14 -0.02,0.29 -0.02,0.44 0,0.37 0.02,0.46 0.16,0.83 0.05,0.15 0.16,0.34 0.31,0.55 0.67,0.97 1.38,1.92 2.04,2.91z"/>
 </g>
</svg>
