<?xml version="1.0" encoding="UTF-8"?>
<!DOCTYPE svg PUBLIC "-//W3C//DTD SVG 1.1//EN" "http://www.w3.org/Graphics/SVG/1.1/DTD/svg11.dtd">
<!-- Creator: CorelDRAW 2020 (64-Bit) -->
<svg xmlns="http://www.w3.org/2000/svg" xml:space="preserve" width="6.00952in" height="6.61144in" version="1.1" style="shape-rendering:geometricPrecision; text-rendering:geometricPrecision; image-rendering:optimizeQuality; fill-rule:evenodd; clip-rule:evenodd"
viewBox="0 0 6003.91 6605.27"
 xmlns:xlink="http://www.w3.org/1999/xlink"
 xmlns:xodm="http://www.corel.com/coreldraw/odm/2003">
 <defs>
  <style type="text/css">
   <![CDATA[
    .fil0 {fill:#332C2B}
   ]]>
  </style>
 </defs>
 <g id="Layer_x0020_1">
  <metadata id="CorelCorpID_0Corel-Layer"/>
  <g id="_1448310148112">
   <g>
    <path class="fil0" d="M2541.25 297.69c-273.38,42.74 -627.87,288.64 -812.72,492.45 -254.93,281.06 -374.57,597.51 -276.51,977.8 105.33,408.45 321,511.53 487.78,831.2 91.32,175.03 126.25,335.25 127.78,532.54 0.68,86.49 -57.16,487.55 -120.16,531.54 -3.21,-4.66 2.55,-185.26 1.57,-209.75 -2.61,-64.65 -14.05,-129.83 -28.23,-192.9 -25.2,-112.12 -70.95,-212.46 -132.72,-309.12 -121.93,-190.81 -269.48,-308.97 -465.97,-417.72 -183.33,-101.47 -370.69,-214.96 -498.33,-385.36 -198.58,-265.11 -154.45,-389.07 -194.02,-691.23 -193.26,148.33 -292.72,513.2 -290.41,748.13 3.06,311.32 149.1,486.59 416.19,628.66 235.08,125.04 484.99,167.74 723.28,321.79 304.32,196.73 329.18,367.42 329.18,704.91 -65.29,-371.06 -552.81,-492.1 -874.52,-442.08 -186.16,28.94 -400.32,13.66 -569.8,-75.24 -168.33,-88.3 -284.83,-279.01 -357.51,-313.09 -53.68,588.53 246.09,967.5 859.68,762.67 236.33,-78.89 501.64,-31.44 685.5,131.68 103.17,91.53 134.6,105.94 207.26,231.45 25.43,43.93 129.37,292.25 110.51,325.07 -66.92,-3.57 -174.95,-336.72 -803.58,-175.29 -132.72,34.08 -283.5,114.85 -413.76,121.06 -72.62,3.46 -174.02,2.3 -242.08,-21.83 -26.4,-9.37 -181.62,-71.19 -190.43,-71.22 12.04,138.42 161.1,346.47 279.77,420.6 207.4,129.56 357.35,70.21 557.92,-12.21 181.53,-74.6 355.06,-161.16 556.69,-147 71.47,5.02 513.04,183.29 514,194.56 -0.27,3.19 -148.31,53.67 -167.63,62.7 -147.75,69.07 -309.23,162.16 -444.94,250.73 -82.8,54.03 -217.9,127.14 -312.55,151.22 -79.72,20.28 -108.58,29.57 -193.45,39.14 -78.86,8.89 -113.56,-13.83 -197.56,-10.24 105.56,193.45 357.59,310.01 574.52,275.51 253.77,-40.37 355.06,-170.03 524.58,-338.97 612.86,-610.79 1007.58,171.74 1096.01,176.28 70.93,-3.95 496.48,-790.25 1087.87,-172.84 146.34,152.78 296.64,308.08 522.72,335.6 214.67,26.13 473.94,-70.51 571.99,-275.57 -62.72,-19.51 -111.34,20.39 -193.86,14.16 -71.7,-5.4 -118.34,-23.6 -184.82,-45.99 -135.79,-45.73 -193.33,-74.36 -315.65,-146.56 -216.15,-127.57 -369.13,-228.51 -611.24,-313.18 -3.19,-14.47 437.38,-195.58 508.08,-198.38 192.7,-7.62 381.92,73.86 556.59,148.99 189.85,81.65 365.75,137.6 557.48,13.02 125.73,-81.7 260,-272.34 278.81,-421.56 -22,0.07 -143.4,56.45 -189.14,69.38 -89.67,25.37 -151.56,25.8 -244.78,21.51 -125.2,-5.77 -287.11,-88.11 -411.47,-119.78 -154.13,-39.25 -315.64,-60.58 -473.22,-28.43 -71.47,14.58 -125.9,39.04 -187.54,77.25 -23.87,14.8 -141.39,124.09 -142.14,124.22 60.54,-501.02 508.75,-830.83 1004.28,-684.63 561.09,165.54 856.04,-101.33 863.37,-606.25l0 -38.53c-0.52,-38.2 -2.58,-77.65 -6.27,-118.33 -42.4,0 -339.5,510.93 -923.65,392.62 -197.6,-40.02 -383.8,-15.81 -566.02,68.39 -242.19,111.91 -256.6,314.51 -313.73,353.73 -45.15,-65.41 32.1,-354.19 76.96,-433.82 67.44,-119.72 153.53,-181.93 263.87,-257.88 190.68,-131.24 499.36,-231.1 718.75,-324.75 248.7,-106.16 417.37,-352.16 421.63,-622.16 2.37,-149.94 -140.58,-718.75 -301.41,-736.68 -27.75,263.61 -9.55,457.64 -189.15,683.57 -132.19,166.3 -316.65,278.9 -500.51,380.04 -447,245.91 -668.52,606.46 -623.47,1125.35l-0.12 0.34c-33.43,36.46 -121.74,-427.25 -123.56,-472.79 -6.49,-162.22 20.58,-355 87.09,-504.05 107.03,-239.85 328.46,-467.34 453.99,-732.15 312.81,-659.91 -103.66,-1195.46 -661.46,-1514.92 -533.61,-305.6 -232.8,38.21 -85.83,257.95 173.9,260.01 255.61,621.87 224.03,931.08 -64.57,632.39 -685.55,1103.97 -354.98,1850.22 114.42,258.31 441.05,485.17 358.79,786.33 -88.13,322.62 -543.29,148.16 -813.6,356.81 -248.36,191.71 -65.05,119.01 -319.31,-27.38 -183.36,-105.57 -266.56,-100.76 -469.45,-112.16 -175.13,-9.85 -292.72,-84.92 -320.58,-267.92 -28.62,-187.95 58.97,-280.96 165.99,-414.04 208.87,-259.73 329.84,-543.18 284,-881.26 -20.74,-152.95 -73.57,-323.62 -126.24,-469.1 -54.13,-149.53 -137.3,-262.07 -192.77,-402.62 -134.37,-340.51 -175.72,-637.07 -56.29,-991.42 112.26,-333.09 273.95,-474.67 430.62,-753.87z"/>
    <path class="fil0" d="M4537.44 691.94c-28.12,23.63 95.39,246.45 110.9,287.99 37.76,101.11 73.13,256.98 85.48,363.91 31.13,269.69 -3.28,513.39 -152.52,743.21 -120.17,185.04 -278.85,324.33 -396.53,517.85 -76.69,126.11 -92.37,189.15 -115.27,333.02 -11.74,73.7 73.64,-86.88 81.88,-99.41 30.08,-45.76 63.63,-89.36 100.13,-130.19 277.67,-310.68 837.18,-467.57 922.57,-910.52 48.42,-251.18 -33.22,-501.27 -176.65,-706.7 -43.06,-61.67 -391.15,-456.99 -459.98,-399.15z"/>
    <path class="fil0" d="M1942.72 2958.15c-85.33,-552.58 -526.69,-677.75 -650.43,-1165.38 -58.94,-232.3 -29.24,-553.99 56.42,-777.74 85.61,-223.63 247.99,-508.51 -129.45,-160.29 -323.67,298.61 -593.87,864.95 -235.61,1246.46 117.3,124.9 369.85,282.86 517.17,390.1 83.62,60.86 176.08,132.35 245.82,208.56 41.95,45.85 149.22,258.29 196.08,258.29z"/>
    <path class="fil0" d="M177.4 2289.56c-86.21,79.96 -112.53,436.38 -79.45,550.72 50.34,174.03 153.48,281.71 312.77,360.39 216.11,106.74 341.05,96.94 575.57,88.57 315.47,-11.25 297.93,2.47 571.53,108.78 111.01,43.13 -21.82,-79.76 -40.34,-94.3 -53.16,-41.75 -149.39,-99.29 -210.39,-129.84 -168.3,-84.28 -323.31,-118.89 -500.24,-171.92 -168.05,-50.37 -294.94,-128.75 -410.4,-261.77 -51.85,-59.73 -99.16,-129.6 -135.35,-199.94 -20.45,-39.77 -34.59,-78.72 -45.64,-122.01 -5.42,-21.23 -20.29,-145.15 -38.05,-128.68z"/>
    <path class="fil0" d="M4412.03 3406.26c86.8,-28.26 135.87,-68.61 233.8,-93.66 273.96,-70.11 618.1,38.31 898.22,-85.74 143.79,-63.68 280.85,-162.08 343.1,-311.83 58.53,-140.82 43.73,-421.98 -20.3,-559.35 -61.46,-131.86 -66.94,43.97 -95.57,120.69 -28.57,76.54 -68.81,144.58 -117.76,209.73 -99.99,133.1 -217.06,220.91 -368.99,287.51 -140.79,61.71 -871.76,232.46 -872.5,432.65z"/>
    <path class="fil0" d="M1666.96 4208.46c-87.24,-305.2 -508.74,-354.85 -773.22,-300.77 -180.77,36.96 -284.12,96.01 -481.75,52.96 -66.95,-14.58 -143.82,-41.09 -200.81,-79.36 -34.52,-23.18 -138.29,-103.47 -137.69,-7.27 0.75,121.3 130.8,277.5 232.05,335.95 142.42,82.21 305.68,97.97 463.38,53.73 173.84,-48.75 514,-159.33 696.6,-130.72 48.77,7.64 199.54,75.46 201.45,75.48z"/>
    <path class="fil0" d="M4333.68 4208.46c2.32,-0.02 157.01,-67.41 201.64,-75.56 77.44,-14.14 178.55,-1.99 255.67,13.71 151.8,30.9 299.08,73.92 447.61,116.6 160.12,46.02 319.37,31.75 462.56,-55.04 96.63,-58.58 232.61,-220.28 233.43,-337.82 0.65,-92.78 -107.6,-10.6 -139.47,10.62 -59.5,39.62 -133.71,62.45 -203.25,78.25 -207.29,47.12 -290.98,-17.52 -478.63,-51.72 -285.73,-52.08 -663.55,-11.83 -779.55,300.95z"/>
    <path class="fil0" d="M5496.26 4885.33c-158.06,-2.93 -167.99,77.42 -399.69,36.18 -133.71,-23.8 -227.87,-80.74 -348.18,-134.39 -196.28,-87.52 -401.44,-103.3 -606.09,-29.41 -119.2,43.03 33.63,60.42 76.48,70.17 246.31,56.05 416.31,246.59 643.12,322.13 219.53,73.11 592.2,-6.84 634.36,-264.68z"/>
    <path class="fil0" d="M507.52 4882.2c2.53,94.36 145.34,211.87 223.98,252.33 122.63,63.09 281.16,59.28 409.36,15.94 230.03,-77.77 373.48,-251.38 643.23,-323.49 51.33,-13.72 198.42,-25.97 74.96,-67.91 -210.16,-71.4 -392.78,-65.34 -598.96,28.06 -134.74,61.03 -205.25,93.72 -350.71,131.87 -233.95,61.37 -256.87,-34.86 -401.86,-36.78z"/>
   </g>
   <g>
    <path class="fil0" d="M2242.39 5787.51l0 812c0,0 132.92,0.02 170.48,-130.03l0 -329.43 115.59 104.04 293.5 314.16 0 -812c0,0 -132.92,-0.02 -170.48,130.03l0 294.77 -123.02 -126.36 -286.08 -257.17z"/>
    <path class="fil0" d="M2943.11 5778.79l523.02 0c0,0 -2.9,127.17 -106.92,141.61l-286.08 0 0 179.15 260.08 0c0,0 59.24,20.6 67.91,71.17l-468.13 0 -0.42 -391.93 10.53 0zm0 787.36l523.02 0c0,0 -2.9,-127.17 -106.92,-141.6l-286.08 0 0 -179.16 260.08 0c0,0 59.24,-24.12 67.91,-74.68l-468.13 0 -0.42 395.44 10.53 0z"/>
    <path class="fil0" d="M3866.32 6141.27c0,0 -147.37,-98.25 -167.6,-118.48 -20.23,-20.23 -52.01,-124.26 60.68,-127.15 112.69,-2.88 186.39,0 208.05,0 21.67,0 105.83,-69.72 -26.02,-115.59 -89.09,0 -178.19,0 -267.29,0 0,0 -153.16,39.03 -145.93,195.08 7.23,156.04 131.5,197.94 131.5,197.94l141.56 83.77c0,0 73.68,47.68 69.35,101.15 -4.33,53.47 -76.95,75.86 -114.52,79.12 -37.57,3.25 -113.78,-4 -165.79,-11.21 -52.01,-7.21 -130.03,91.04 36.13,140.16 166.16,49.12 264.41,-17.34 264.41,-17.34 0,0 153.16,-54.91 141.61,-193.61 -11.56,-138.7 -166.14,-213.84 -166.14,-213.84z"/>
    <path class="fil0" d="M4376.32 5795.94l-335.2 705.09c-14.79,31.12 70.1,102.59 140.16,37.59l65.01 -140.14 273.08 0 99.71 151.7c0,0 101.15,43.36 117.03,-43.33l-359.79 -710.9zm10.14 302l-108.36 180.62 197.2 0 -88.83 -180.62z"/>
    <path class="fil0" d="M1834.48 6455.02c0,0 -131.5,14.44 -148.84,-115.59 -17.34,-130.03 0,-419.01 0,-419.01 0,0 -14.46,-109.83 -144.49,-147.37l0 606.84c0,0 20.69,210.94 298.11,225.4l-4.78 -150.26zm0 0c0,0 139.16,14.44 156.5,-115.59 17.34,-130.03 0,-419.01 0,-419.01 0,0 14.46,-109.83 144.49,-147.37l0 606.84c0,0 -18.78,210.94 -296.21,225.4l-4.78 -150.26z"/>
   </g>
   <path class="fil0" d="M3000.54 1.6c-7.98,5.53 -48.6,112.27 -60.5,134.01 -29.44,53.8 -57.08,66.91 -89.09,108.34 -25.09,32.47 -24.07,119.92 31.16,140.87 75.35,28.58 96.48,-52.1 135.49,-39.79 47.44,14.98 53.3,75.52 134.76,30.96 42.59,-23.3 44.84,-110.95 6.22,-141.03 -42.78,-33.34 -56.11,-69.26 -84.02,-111.83 -18.51,-28.23 -44.38,-118.78 -67.07,-123.14l-3.26 0c-1.25,0.24 -2.48,0.76 -3.7,1.6z"/>
   <g>
    <path class="fil0" d="M2940.82 863.48c-1.75,781.01 -44.91,1582.38 -64.61,2365.39 -5.07,201.61 -48.1,1027.29 -17.67,1184.48 54.61,38.2 105.39,87.04 145.32,149.34 40.17,-62.71 91.39,-111.77 146.39,-150.08 27.02,-133 -7.86,-438.1 -8.02,-585.54l-76.34 -2905.5c-1.2,-72.17 -0.24,-516.14 -39.88,-549.32 -91.57,-76.67 -85.03,437.29 -85.19,491.22z"/>
    <path class="fil0" d="M2801.09 4377.56c13.37,-291.08 59.89,-1942.06 62.4,-2110.88 5.42,-359.38 11.47,-723.28 27.07,-1082.24 7.65,-175.51 -0.22,-369.08 11.69,-539.84 4.35,-62.17 28.94,-192.13 -29.68,-239.6 -43.16,-34.99 -48.71,186.39 -51.24,219.72 -52.97,689.68 -97.68,1380.02 -151,2069.23 -26.59,343.83 -50.76,686.5 -78.79,1030.54 -14.2,174.39 -27.34,316.37 -67.87,487.81 -6.71,28.39 -14.18,51.05 -19.83,69.29 65.77,9.09 184.14,33.22 297.26,95.98z"/>
    <path class="fil0" d="M3209.24 4376.1c-13.48,-295.19 -59.85,-1940.88 -62.41,-2109.42 -5.35,-359.38 -11.45,-723.28 -27.02,-1082.24 -7.67,-175.51 0.24,-369.08 -11.69,-539.84 -4.35,-62.17 -28.94,-192.13 29.68,-239.6 43.18,-34.99 48.66,186.39 51.26,219.72 52.92,689.68 97.64,1380.02 150.95,2069.23 26.59,343.83 50.79,686.5 78.81,1030.54 14.2,174.39 27.35,316.37 67.85,487.81 6.66,28.22 14.07,50.76 19.72,68.94 -64.72,8.74 -183.35,32.37 -297.17,94.86z"/>
   </g>
   <path class="fil0" d="M3506.41 4343.21c0,0 0,0 0,0z"/>
  </g>
 </g>
</svg>
