<?xml version="1.0" encoding="UTF-8"?>
<!DOCTYPE svg PUBLIC "-//W3C//DTD SVG 1.1//EN" "http://www.w3.org/Graphics/SVG/1.1/DTD/svg11.dtd">
<!-- Creator: CorelDRAW 2020 (64-Bit) -->
<svg xmlns="http://www.w3.org/2000/svg" xml:space="preserve" width="7.73333in" height="7.73333in" version="1.1" style="shape-rendering:geometricPrecision; text-rendering:geometricPrecision; image-rendering:optimizeQuality; fill-rule:evenodd; clip-rule:evenodd"
viewBox="0 0 491.01 491.01"
 xmlns:xlink="http://www.w3.org/1999/xlink"
 xmlns:xodm="http://www.corel.com/coreldraw/odm/2003">
 <defs>
  <style type="text/css">
   <![CDATA[
    .str1 {stroke:black;stroke-width:3.53;stroke-miterlimit:2.61313}
    .str4 {stroke:#E6E6E6;stroke-width:3.53;stroke-miterlimit:2.61313}
    .str0 {stroke:black;stroke-width:1.76;stroke-miterlimit:2.61313}
    .str2 {stroke:black;stroke-width:1.32;stroke-miterlimit:2.61313}
    .str5 {stroke:#E6E6E6;stroke-width:1.32;stroke-miterlimit:2.61313}
    .str3 {stroke:black;stroke-width:0.44;stroke-miterlimit:2.61313}
    .fil2 {fill:none}
    .fil6 {fill:black}
    .fil5 {fill:black}
    .fil3 {fill:#5351FA}
    .fil4 {fill:#B3B3B3}
    .fil7 {fill:#E6E6E6}
    .fil9 {fill:#E6E6E6}
    .fil1 {fill:#FF6600}
    .fil0 {fill:white}
    .fil8 {fill:black;fill-rule:nonzero}
    .fil10 {fill:#FF6600;fill-rule:nonzero}
   ]]>
  </style>
   <clipPath id="id0">
    <path d="M-0 0l491.01 0 0 491.01 -491.01 0 0 -491.01z"/>
   </clipPath>
 </defs>
 <g id="Layer_x0020_1">
  <metadata id="CorelCorpID_0Corel-Layer"/>
  <polygon class="fil0" points="-0,0 491.01,0 491.01,491.01 -0,491.01 "/>
  <g style="clip-path:url(#id0)">
   <g id="_3053648673552">
    <g>
     <path id="1" class="fil1" d="M358.25 185.74c0,0 36.36,-92.27 83.58,-78.7 47.22,13.57 -1.63,103.12 -1.63,103.12l-109.04 165.69c-16.31,24.78 -83.87,22.47 -53.96,-115.85 0,0 -83.41,193.85 -155.59,141.75 -72.19,-52.1 10.31,-149.8 10.31,-149.8l63.5 -79.78c0,0 48.85,-46.68 40.16,9.77 0,0 57.53,-64.86 95.52,-48.85 37.99,16.01 27.14,52.65 27.14,52.65z"/>
     <g>
      <g>
       <path class="fil0 str0" d="M1 353.7l0 -137.83 0 17.2c0,0 51.32,0 93.12,-19.58 41.8,-19.58 91.01,0.79 91.01,0.79 0,0 41.53,17.2 73.02,6.35 31.48,-10.85 41.53,1.32 41.53,1.32 0,0 9.26,12.17 -13.76,22.22 -23.02,10.05 -92.86,15.08 -92.86,15.08 0,0 -14.55,0 -6.08,8.73 8.47,8.73 44.44,28.84 58.99,30.16l36.51 -17.46c0,0 12.83,-7.28 23.41,-2.12 0,0 39.15,-24.47 57.01,-17.72 0,0 40.74,-18.78 37.3,7.41 0,0 0,2.65 -11.64,11.9 0,0 9.26,-1.06 10.05,6.88 0.79,7.94 -20.9,19.31 -20.9,19.31 0,0 -70.37,54.76 -116.4,65.87 -46.03,11.11 -86.77,1.59 -86.77,1.59 0,0 -46.56,-11.64 -63.49,-19.05 -16.93,-7.41 -65.08,-31.22 -110.05,-19.05l0 17.99z"/>
       <path class="fil2 str0" d="M153.91 320.9c0,0 33.07,13.49 92.06,-22.75"/>
       <path class="fil2 str0" d="M223.22 348.15c0,0 103.97,-44.44 82.67,-69.58"/>
       <path class="fil2 str0" d="M362.91 260.85c0,0 13.49,9.52 3.97,18.25 -9.52,8.73 -67.2,48.41 -104.23,69.31"/>
       <path class="fil2 str0" d="M400.21 268.26c0,0 -25.13,28.84 -93.12,69.31"/>
      </g>
      <g>
       <path class="fil3 str0" d="M57.28 225.96c12.11,-2.86 24.86,-6.86 36.84,-12.46 41.8,-19.58 91.01,0.79 91.01,0.79 0,0 41.53,17.2 73.02,6.35 31.48,-10.85 41.53,1.32 41.53,1.32 0,0 9.26,12.17 -13.76,22.22 -23.02,10.05 -92.86,15.08 -92.86,15.08 0,0 -14.55,0 -6.08,8.73 8.47,8.73 44.44,28.84 58.99,30.16l36.51 -17.46c0,0 12.83,-7.28 23.41,-2.12 0,0 39.15,-24.47 57.01,-17.72 0,0 40.74,-18.78 37.3,7.41 0,0 0,2.65 -11.64,11.9 0,0 9.26,-1.06 10.05,6.88 0.79,7.94 -20.9,19.31 -20.9,19.31 0,0 -70.37,54.76 -116.4,65.87 -46.03,11.11 -86.77,1.59 -86.77,1.59 0,0 -46.56,-11.64 -63.49,-19.05 47.27,-23.17 38.45,-72.06 2.47,-83.71 -35.98,-11.64 -56.24,-45.1 -56.24,-45.1l0 -0z"/>
       <path class="fil2 str0" d="M153.91 320.9c0,0 33.07,13.49 92.06,-22.75"/>
       <path class="fil2 str0" d="M223.22 348.15c0,0 103.97,-44.44 82.67,-69.58"/>
       <path class="fil2 str0" d="M362.91 260.85c0,0 13.49,9.52 3.97,18.25 -9.52,8.73 -67.2,48.41 -104.23,69.31"/>
       <path class="fil2 str0" d="M400.21 268.26c0,0 -25.13,28.84 -93.12,69.31"/>
      </g>
     </g>
     <g>
      <path class="fil2 str1" d="M450.35 186.91c-19.81,17.94 -46.09,28.87 -74.92,28.87 -61.68,0 -111.68,-50 -111.68,-111.68 0,-31.09 12.7,-59.2 33.2,-79.45l37.1 40.81c-9.45,10.12 -15.24,23.7 -15.24,38.64 0,31.27 25.35,56.61 56.61,56.61 14.56,0 27.83,-5.5 37.86,-14.53l37.06 40.72z"/>
      <path class="fil4" d="M450.35 186.91c-19.81,17.94 -46.09,28.87 -74.92,28.87 -61.68,0 -111.68,-50 -111.68,-111.68 0,-32.61 13.98,-61.95 36.27,-82.37l37.06 40.72c-11.23,10.35 -18.27,25.17 -18.27,41.65 0,31.27 25.35,56.61 56.61,56.61 14.56,0 27.83,-5.5 37.86,-14.53l37.06 40.72z"/>
      <circle class="fil0 str2" cx="413.29" cy="146.19" r="7.14"/>
      <circle class="fil0 str2" cx="450.35" cy="186.91" r="7.14"/>
      <circle class="fil0 str2" cx="296.95" cy="24.65" r="7.14"/>
      <circle class="fil0 str2" cx="334.01" cy="65.38" r="7.14"/>
      <g>
       <circle class="fil5" cx="361.26" cy="90.5" r="5.69"/>
       <g>
        <path class="fil6 str3" d="M376.38 107.52l-3.2 3.12 -7.41 -7.74c-2.02,0.51 -4.52,0.68 -6.5,0.52 -4.67,-0.39 -8.38,-2.6 -10.18,-7.07 -0.79,-1.96 -1.48,-3.97 -2.11,-5.98 -1.74,-5.55 -3.21,-11.54 -4.26,-17.27l-0.47 -2.57 15.94 16.36 -0.16 0.46c-0.52,1.51 -0.25,3.4 1.06,4.42 1.26,0.99 3.05,0.79 4.3,-0.12 0.76,-1.26 0.95,-2.79 0.01,-4.03 -1.01,-1.32 -2.89,-1.62 -4.41,-1.12l-0.47 0.15 -16.15 -16.15 2.56 0.5c5.72,1.12 11.69,2.67 17.22,4.48 2.01,0.66 4,1.37 5.95,2.18 4.45,1.86 6.61,5.6 6.94,10.27 0.14,1.98 -0.07,4.49 -0.6,6.49l7.64 7.51 -5.66 5.66 -0.06 -0.07z"/>
       </g>
       <path class="fil7 str3" d="M376.47 106.44l4.5 -4.5 -7.41 -7.28c0,0 3.77,-12.3 -5.75,-16.27 -9.52,-3.97 -23.02,-6.61 -23.02,-6.61l13.96 13.96c0,0 3.37,-1.12 5.29,1.39 1.67,2.19 0.27,4.59 -0.11,5.16l-0.03 -0.03c0,0 -2.81,2.08 -5.29,0.13 -2.49,-1.95 -1.32,-5.31 -1.32,-5.31l-13.77 -14.13c0,0 2.47,13.53 6.32,23.1 3.85,9.57 16.19,5.96 16.19,5.96l7.18 7.5 3.21 -3.13 0.05 0.06z"/>
      </g>
     </g>
     <g>
      <circle class="fil5 str3" cx="434.86" cy="262.43" r="29.63"/>
      <line class="fil2 str4" x1="422.42" y1="249.99" x2="447.31" y2= "274.88" />
      <line class="fil2 str4" x1="422.42" y1="274.88" x2="447.31" y2= "249.99" />
     </g>
     <g>
      <rect class="fil2 str0" transform="matrix(0.810468 -0.0956719 0.117231 0.993105 104.793 126.13)" width="119.05" height="75.13"/>
      <g transform="matrix(0.993105 -0.117231 0.117231 0.993105 -3701.08 911.013)">
       <path class="fil8" d="M112.7 191.79l-7.95 -67.37 27.83 -3.29c5.05,-0.6 9.51,-0.21 13.4,1.17 3.89,1.37 7.02,3.62 9.41,6.75 2.41,3.13 3.86,7 4.41,11.6 0.55,4.68 0,8.77 -1.65,12.25 -1.65,3.5 -4.25,6.33 -7.8,8.47 -3.55,2.14 -7.9,3.52 -13.03,4.12l-17.59 2.08 -1.52 -12.84 14.57 -1.72c2.46,-0.29 4.47,-0.86 6.06,-1.7 1.58,-0.84 2.71,-1.96 3.4,-3.39 0.71,-1.43 0.94,-3.2 0.69,-5.28 -0.24,-2.07 -0.88,-3.75 -1.91,-5.02 -1.01,-1.27 -2.4,-2.14 -4.15,-2.64 -1.73,-0.5 -3.83,-0.6 -6.27,-0.31l-8.03 0.95 6.4 54.25 -16.28 1.92zm34.3 -35.28l20.41 28.82 -17.76 2.1 -20.09 -28.86 17.44 -2.06z"/>
      </g>
      <g transform="matrix(0.993105 -0.117231 0.117231 0.993105 -3636.07 912.396)">
       <path class="fil8" d="M177.71 193.18l-5.97 -50.54 15.63 -1.85 1.09 9.22 0.52 -0.06c0.53,-3.45 1.74,-6.11 3.63,-7.99 1.89,-1.87 4.22,-2.97 6.97,-3.3 0.76,-0.09 1.52,-0.13 2.33,-0.13 0.8,0.01 1.54,0.07 2.25,0.19l1.65 13.98c-0.79,-0.17 -1.82,-0.26 -3.08,-0.26 -1.25,-0.01 -2.36,0.04 -3.33,0.16 -1.9,0.22 -3.57,0.84 -4.99,1.87 -1.43,1.03 -2.48,2.33 -3.17,3.94 -0.69,1.6 -0.91,3.41 -0.67,5.44l3.24 27.43 -16.09 1.9z"/>
      </g>
      <rect class="fil9 str0" transform="matrix(0.993105 -0.117231 0.117231 0.993105 195.257 109.991)" width="10.85" height="10.85"/>
      <rect class="fil9 str0" transform="matrix(0.993105 -0.117231 0.117231 0.993105 204.065 184.605)" width="10.85" height="10.85"/>
      <rect class="fil9 str0" transform="matrix(0.993105 -0.117231 0.117231 0.993105 107.58 195.995)" width="10.85" height="10.85"/>
      <rect class="fil9 str0" transform="matrix(0.993105 -0.117231 0.117231 0.993105 98.772 121.381)" width="10.85" height="10.85"/>
     </g>
    </g>
    <polygon class="fil8" points="9.42,479.87 9.42,445.92 18.83,445.92 36.09,466.58 31.73,466.58 31.73,445.92 42.88,445.92 42.88,479.87 33.48,479.87 16.21,459.21 20.57,459.21 20.57,479.87 "/>
    <path id="1" class="fil8" d="M123.06 480.35c-2.3,0 -4.42,-0.56 -6.38,-1.67 -1.96,-1.12 -3.52,-2.7 -4.68,-4.75 -1.16,-2.05 -1.75,-4.5 -1.75,-7.35 0,-2.85 0.58,-5.29 1.75,-7.35 1.16,-2.05 2.72,-3.63 4.68,-4.73 1.96,-1.1 4.08,-1.65 6.38,-1.65 2.33,0 4.24,0.49 5.72,1.48 1.49,0.99 2.59,2.49 3.3,4.51 0.71,2.02 1.07,4.6 1.07,7.74 0,3.17 -0.33,5.77 -0.99,7.81 -0.66,2.04 -1.73,3.54 -3.2,4.51 -1.47,0.97 -3.44,1.46 -5.89,1.46zm2.62 -8.54c0.81,0 1.54,-0.19 2.18,-0.58 0.65,-0.39 1.16,-0.98 1.55,-1.77 0.39,-0.79 0.58,-1.75 0.58,-2.89 0,-1.16 -0.19,-2.13 -0.58,-2.89 -0.39,-0.76 -0.91,-1.33 -1.55,-1.72 -0.65,-0.39 -1.37,-0.58 -2.18,-0.58 -0.81,0 -1.54,0.19 -2.18,0.58 -0.65,0.39 -1.16,0.96 -1.55,1.72 -0.39,0.76 -0.58,1.72 -0.58,2.89 0,1.13 0.19,2.09 0.58,2.89 0.39,0.79 0.91,1.38 1.55,1.77 0.65,0.39 1.37,0.58 2.18,0.58zm4.66 8.05l0 -3.59 -0.05 -9.7 -0.48 -9.7 0 -13 10.96 0 0 35.99 -10.43 0z"/>
    <path id="2" class="fil8" d="M155.99 480.35c-2.26,0 -4.49,-0.24 -6.69,-0.73 -2.2,-0.48 -3.98,-1.12 -5.34,-1.89l3.01 -7.23c1.26,0.74 2.72,1.33 4.39,1.75 1.67,0.42 3.29,0.63 4.87,0.63 1.33,0 2.22,-0.11 2.69,-0.34 0.47,-0.23 0.7,-0.53 0.7,-0.92 0,-0.39 -0.27,-0.67 -0.82,-0.85 -0.55,-0.18 -1.28,-0.32 -2.18,-0.41 -0.91,-0.1 -1.9,-0.22 -2.98,-0.36 -1.08,-0.15 -2.17,-0.36 -3.27,-0.65 -1.1,-0.29 -2.1,-0.73 -3.01,-1.31 -0.91,-0.58 -1.63,-1.37 -2.18,-2.35 -0.55,-0.99 -0.82,-2.24 -0.82,-3.76 0,-1.68 0.51,-3.2 1.53,-4.56 1.02,-1.36 2.54,-2.45 4.56,-3.27 2.02,-0.82 4.52,-1.24 7.49,-1.24 1.94,0 3.88,0.18 5.82,0.53 1.94,0.36 3.61,0.91 5,1.65l-3.01 7.23c-1.36,-0.74 -2.69,-1.25 -4,-1.53 -1.31,-0.27 -2.53,-0.41 -3.66,-0.41 -1.39,0 -2.34,0.13 -2.84,0.39 -0.5,0.26 -0.75,0.55 -0.75,0.87 0,0.39 0.27,0.68 0.82,0.87 0.55,0.19 1.28,0.34 2.18,0.44 0.91,0.1 1.9,0.22 2.98,0.36 1.08,0.15 2.17,0.37 3.25,0.68 1.08,0.31 2.08,0.75 2.98,1.33 0.91,0.58 1.63,1.37 2.18,2.35 0.55,0.99 0.82,2.24 0.82,3.76 0,1.58 -0.5,3.06 -1.5,4.44 -1,1.37 -2.52,2.47 -4.56,3.3 -2.04,0.82 -4.59,1.24 -7.66,1.24z"/>
    <path id="3" class="fil10" d="M62.72 480.35c-3.23,0 -6.05,-0.6 -8.46,-1.79 -2.41,-1.2 -4.28,-2.84 -5.6,-4.92 -1.33,-2.09 -1.99,-4.44 -1.99,-7.06 0,-2.68 0.65,-5.06 1.96,-7.13 1.31,-2.07 3.1,-3.69 5.38,-4.85 2.28,-1.16 4.84,-1.75 7.69,-1.75 2.62,0 5.04,0.52 7.25,1.55 2.21,1.03 3.99,2.57 5.34,4.61 1.34,2.04 2.01,4.56 2.01,7.57 0,0.39 -0.02,0.82 -0.05,1.29 -0.03,0.47 -0.06,0.9 -0.1,1.29l-20.42 0 0 -5.29 14.6 0 -4.12 1.41c0,-1.03 -0.19,-1.92 -0.56,-2.64 -0.37,-0.73 -0.88,-1.29 -1.53,-1.7 -0.65,-0.4 -1.42,-0.61 -2.33,-0.61 -0.91,0 -1.69,0.2 -2.35,0.61 -0.66,0.4 -1.17,0.97 -1.53,1.7 -0.36,0.73 -0.53,1.61 -0.53,2.64l0 1.65c0,1.13 0.23,2.1 0.68,2.91 0.45,0.81 1.1,1.41 1.94,1.82 0.84,0.4 1.86,0.61 3.06,0.61 1.23,0 2.24,-0.16 3.03,-0.49 0.79,-0.32 1.62,-0.81 2.5,-1.46l5.72 5.77c-1.29,1.39 -2.89,2.45 -4.78,3.18 -1.89,0.73 -4.16,1.09 -6.81,1.09z"/>
    <path id="4" class="fil10" d="M94.39 480.35c-3.23,0 -6.05,-0.6 -8.46,-1.79 -2.41,-1.2 -4.28,-2.84 -5.6,-4.92 -1.33,-2.09 -1.99,-4.44 -1.99,-7.06 0,-2.68 0.65,-5.06 1.96,-7.13 1.31,-2.07 3.1,-3.69 5.38,-4.85 2.28,-1.16 4.84,-1.75 7.69,-1.75 2.62,0 5.04,0.52 7.25,1.55 2.21,1.03 3.99,2.57 5.34,4.61 1.34,2.04 2.01,4.56 2.01,7.57 0,0.39 -0.02,0.82 -0.05,1.29 -0.03,0.47 -0.06,0.9 -0.1,1.29l-20.42 0 0 -5.29 14.6 0 -4.12 1.41c0,-1.03 -0.19,-1.92 -0.56,-2.64 -0.37,-0.73 -0.88,-1.29 -1.53,-1.7 -0.65,-0.4 -1.42,-0.61 -2.33,-0.61 -0.91,0 -1.69,0.2 -2.35,0.61 -0.66,0.4 -1.17,0.97 -1.53,1.7 -0.36,0.73 -0.53,1.61 -0.53,2.64l0 1.65c0,1.13 0.23,2.1 0.68,2.91 0.45,0.81 1.1,1.41 1.94,1.82 0.84,0.4 1.86,0.61 3.06,0.61 1.23,0 2.24,-0.16 3.03,-0.49 0.79,-0.32 1.62,-0.81 2.5,-1.46l5.72 5.77c-1.29,1.39 -2.89,2.45 -4.78,3.18 -1.89,0.73 -4.16,1.09 -6.81,1.09z"/>
    <g>
     <circle class="fil5 str2" cx="219.58" cy="70.9" r="21.16"/>
     <g>
      <line class="fil2 str5" x1="211.36" y1="68.72" x2="219.09" y2= "76.44" />
      <line class="fil2 str5" x1="218.59" y1="76.84" x2="230.97" y2= "64.46" />
     </g>
    </g>
   </g>
  </g>
  <polygon class="fil2" points="-0,0 491.01,0 491.01,491.01 -0,491.01 "/>
 </g>
</svg>
