<?xml version="1.0" encoding="UTF-8"?>
<!DOCTYPE svg PUBLIC "-//W3C//DTD SVG 1.1//EN" "http://www.w3.org/Graphics/SVG/1.1/DTD/svg11.dtd">
<!-- Creator: CorelDRAW 2020 (64-Bit) -->
<svg xmlns="http://www.w3.org/2000/svg" xml:space="preserve" width="7.73333in" height="7.73333in" version="1.1" style="shape-rendering:geometricPrecision; text-rendering:geometricPrecision; image-rendering:optimizeQuality; fill-rule:evenodd; clip-rule:evenodd"
viewBox="0 0 577.82 577.82"
 xmlns:xlink="http://www.w3.org/1999/xlink"
 xmlns:xodm="http://www.corel.com/coreldraw/odm/2003">
 <defs>
  <style type="text/css">
   <![CDATA[
    .str0 {stroke:black;stroke-width:2.08;stroke-miterlimit:2.61313}
    .str1 {stroke:black;stroke-width:1.56;stroke-miterlimit:2.61313}
    .str3 {stroke:black;stroke-width:1.04;stroke-miterlimit:2.61313}
    .str2 {stroke:black;stroke-width:0.52;stroke-miterlimit:2.61313}
    .fil8 {fill:none}
    .fil7 {fill:black}
    .fil1 {fill:#4FA054}
    .fil9 {fill:#CCCCCC}
    .fil5 {fill:#E6E6E6}
    .fil4 {fill:#FF6600}
    .fil6 {fill:#FF6600}
    .fil2 {fill:#FFD401}
    .fil3 {fill:#FFD401}
    .fil0 {fill:white}
    .fil10 {fill:black;fill-rule:nonzero}
    .fil11 {fill:#4FA054;fill-rule:nonzero}
   ]]>
  </style>
   <clipPath id="id0">
    <path d="M-0 0l577.82 0 0 577.82 -577.82 0 0 -577.82z"/>
   </clipPath>
 </defs>
 <g id="Layer_x0020_1">
  <metadata id="CorelCorpID_0Corel-Layer"/>
  <polygon class="fil0" points="-0,0 577.82,0 577.82,577.82 -0,577.82 "/>
  <g style="clip-path:url(#id0)">
   <g id="_3053241459712">
    <g>
     <path id="1" class="fil1" d="M415.16 376.07c0,0 45.92,116.52 105.55,99.38 59.63,-17.14 -2.06,-130.23 -2.06,-130.23l-137.7 -209.24c-20.59,-31.29 -105.91,-28.37 -68.15,146.3 0,0 -105.33,-244.8 -196.49,-179.01 -91.16,65.8 13.02,189.17 13.02,189.17l80.19 100.75c0,0 61.69,58.94 50.72,-12.34 0,0 72.65,81.91 120.63,61.69 47.98,-20.22 34.27,-66.48 34.27,-66.48z"/>
     <g>
      <path class="fil0 str0" d="M-0 256.69c14.24,1.01 54.98,1.83 88.39,-17.66 41.22,-24.05 141.7,-66.99 141.7,-66.99 0,0 31.77,-17.18 54.96,-21.9 23.19,-4.72 128.82,-11.16 128.82,-11.16 0,0 11.59,1.72 10.74,12.45 -0.86,10.73 -10.74,19.32 -22.76,21.47 -12.02,2.15 -104.34,24.48 -104.34,24.48 0,0 -7.3,2.58 -15.46,7.3 -8.16,4.72 -71.71,45.09 -71.71,45.09 0,0 -11.59,10.73 -7.73,25.76 3.86,15.03 19.75,17.18 19.75,17.18l98.76 -11.16c0,0 17.6,-2.15 24.9,15.03 7.3,17.18 -11.59,27.91 -11.59,27.91l-124.52 42.08c0,0 -64.84,29.2 -139.12,25.76 -49.19,-2.27 -65.43,-3.23 -70.79,-3.62l0 -132.02z"/>
      <path class="fil2 str0" d="M76.24 245.14c4.12,-1.78 8.19,-3.8 12.16,-6.11 41.22,-24.05 141.7,-66.99 141.7,-66.99 0,0 31.77,-17.18 54.96,-21.9 23.19,-4.72 128.82,-11.16 128.82,-11.16 0,0 11.59,1.72 10.74,12.45 -0.86,10.73 -10.74,19.32 -22.76,21.47 -12.02,2.15 -104.34,24.48 -104.34,24.48 0,0 -7.3,2.58 -15.46,7.3 -8.16,4.72 -71.71,45.09 -71.71,45.09 0,0 -11.59,10.73 -7.73,25.76 3.86,15.03 19.75,17.18 19.75,17.18l98.76 -11.16c0,0 17.6,-2.15 24.9,15.03 7.3,17.18 -11.59,27.91 -11.59,27.91l-124.52 42.08c0,0 -52.77,23.76 -117.64,25.89 -37.76,-43.24 -5.17,-60.67 28.32,-107.04 33.49,-46.37 -44.36,-40.26 -44.36,-40.26l-0 -0z"/>
      <path class="fil2 str0" d="M366.09 180.99l42.63 8.66c0,0 13.74,5.15 8.16,18.03 -5.58,12.88 -21.9,10.31 -21.9,10.31l-87.17 -9.02c0,0 -8.75,-3.78 -40.44,4.77 7.12,-4.46 12.64,-7.88 14.68,-9.06 8.16,-4.72 15.46,-7.3 15.46,-7.3 0,0 38.14,-9.23 68.59,-16.39z"/>
      <path class="fil2 str0" d="M383.08 216.76c0,0 -7,18.41 -29.75,16.69 -22.76,-1.72 -58.96,-19.97 -113,-2.68 9.29,-5.87 19.15,-12.09 27.04,-17.03 31.69,-8.55 40.44,-4.77 40.44,-4.77l75.27 7.79z"/>
      <path class="fil2 str0" d="M353.33 233.45c0,0 -2.15,14.6 -13.74,15.03 -11.59,0.43 -55.39,-6.87 -55.39,-6.87 0,0 -20.32,-7.38 -67.11,3.87 5.63,-3.57 14.16,-8.98 23.24,-14.72 54.04,-17.28 90.24,0.97 113,2.68z"/>
     </g>
     <path class="fil3 str0" d="M432.53 212.58c0,0 -3.77,18.87 -20.07,20.76 16.3,1.89 20.07,20.76 20.07,20.76 2.4,-17.5 20.76,-20.76 20.76,-20.76 0,0 -18.36,-3.26 -20.76,-20.76z"/>
     <path class="fil4 str1" d="M170.75 142.91c0,0 -2.15,10.74 -11.43,11.82 9.28,1.07 11.43,11.82 11.43,11.82 1.37,-9.96 11.82,-11.82 11.82,-11.82 0,0 -10.45,-1.86 -11.82,-11.82z"/>
     <path class="fil5 str1" d="M267.37 393.76c0,0 -4.14,20.72 -22.04,22.79 17.89,2.07 22.04,22.79 22.04,22.79 2.64,-19.21 22.79,-22.79 22.79,-22.79 0,0 -20.16,-3.58 -22.79,-22.79z"/>
     <g>
      <rect class="fil6 str2" x="224.77" y="371.88" width="18.37" height="18.37"/>
      <polygon class="fil7" points="238.86,371.88 238.86,383.5 224.77,383.5 224.77,371.88 "/>
      <rect class="fil3 str2" x="218.39" y="363.32" width="18.84" height="18.84"/>
     </g>
     <g>
      <path class="fil4 str1" d="M530.38 284.46c0,0 3.08,-3.2 8.33,-0.51 5.26,2.69 0.13,8.97 0.13,8.97l-42.69 61.15 -2.69 1.92 -6.54 -3.97 0.38 -5.9 43.08 -61.67z"/>
      <polygon class="fil5 str1" points="486.92,352.03 481.67,365.23 493.46,356 "/>
      <path class="fil8 str1" d="M481.67 365.23c0,0 -22.82,28.33 -46.92,24.74 -24.1,-3.59 -43.85,-34.62 -43.85,-34.62 0,0 -30.51,-44.61 -77.95,2.05"/>
     </g>
     <g>
      <circle class="fil9 str2" cx="499.23" cy="263.39" r="8.24"/>
      <path class="fil4 str2" d="M503.56 256.38c2.34,1.45 3.9,4.05 3.9,7 0,4.55 -3.69,8.24 -8.24,8.24 -1.54,0 -2.98,-0.42 -4.22,-1.16l8.55 -14.08z"/>
     </g>
     <g>
      <rect class="fil1 str3" transform="matrix(1.36168 1.36168 -1.36168 1.36168 386.493 259.874)" width="12.14" height="12.14"/>
      <rect class="fil3 str3" transform="matrix(1.36168 1.36168 -1.36168 1.36168 403.026 276.407)" width="12.14" height="12.14"/>
      <rect class="fil3 str3" transform="matrix(1.36168 1.36168 -1.36168 1.36168 369.959 276.407)" width="12.14" height="12.14"/>
      <rect class="fil1 str3" transform="matrix(1.36168 1.36168 -1.36168 1.36168 386.493 292.94)" width="12.14" height="12.14"/>
     </g>
     <polygon class="fil3 str2" points="300.58,392.58 303.07,379.19 314.44,387.13 306.96,375.93 319.57,373.43 306.81,370.94 314.13,359.58 303.38,366.74 300.58,353.67 297.78,366.74 287.04,359.58 294.36,370.94 281.59,373.43 294.2,375.93 286.73,387.13 298.09,379.19 "/>
    </g>
    <line class="fil8 str0" x1="1.18" y1="231" x2="1.18" y2= "412.82" />
    <path class="fil10" d="M33.01 560.49c-3.23,0 -6.23,-0.51 -8.99,-1.54 -2.76,-1.03 -5.15,-2.48 -7.16,-4.37 -2.02,-1.88 -3.59,-4.1 -4.71,-6.65 -1.12,-2.55 -1.68,-5.33 -1.68,-8.33 0,-3.04 0.56,-5.83 1.68,-8.36 1.12,-2.53 2.69,-4.74 4.71,-6.62 2.02,-1.88 4.4,-3.34 7.16,-4.37 2.76,-1.03 5.76,-1.54 8.99,-1.54 3.27,0 6.28,0.51 9.02,1.54 2.74,1.03 5.12,2.48 7.13,4.37 2.02,1.88 3.59,4.09 4.71,6.62 1.12,2.53 1.68,5.32 1.68,8.36 0,3.01 -0.56,5.78 -1.68,8.33 -1.12,2.55 -2.69,4.77 -4.71,6.65 -2.02,1.88 -4.39,3.34 -7.13,4.37 -2.74,1.03 -5.75,1.54 -9.02,1.54zm13.07 9.19c-1.86,0 -3.6,-0.18 -5.19,-0.54 -1.6,-0.36 -3.15,-0.96 -4.65,-1.8 -1.5,-0.84 -3.07,-1.99 -4.71,-3.45 -1.64,-1.46 -3.46,-3.28 -5.48,-5.45l13.93 -3.42c0.91,1.41 1.69,2.49 2.34,3.25 0.65,0.76 1.28,1.29 1.91,1.6 0.63,0.3 1.34,0.46 2.14,0.46 1.98,0 3.82,-0.86 5.54,-2.57l5.82 6.85c-2.85,3.39 -6.73,5.08 -11.64,5.08zm-13.07 -20.09c1.26,0 2.43,-0.23 3.51,-0.68 1.08,-0.46 2.04,-1.11 2.85,-1.97 0.82,-0.86 1.46,-1.9 1.91,-3.14 0.46,-1.24 0.68,-2.63 0.68,-4.2 0,-1.56 -0.23,-2.96 -0.68,-4.2 -0.46,-1.24 -1.09,-2.28 -1.91,-3.14 -0.82,-0.86 -1.77,-1.51 -2.85,-1.97 -1.08,-0.46 -2.25,-0.69 -3.51,-0.69 -1.26,0 -2.43,0.23 -3.51,0.69 -1.08,0.46 -2.04,1.11 -2.85,1.97 -0.82,0.86 -1.46,1.9 -1.91,3.14 -0.46,1.24 -0.69,2.64 -0.69,4.2 0,1.56 0.23,2.96 0.69,4.2 0.46,1.24 1.09,2.28 1.91,3.14 0.82,0.86 1.77,1.51 2.85,1.97 1.08,0.46 2.25,0.68 3.51,0.68z"/>
    <path id="1" class="fil10" d="M73.08 560.14c-2.47,0 -4.71,-0.5 -6.71,-1.51 -2,-1.01 -3.57,-2.59 -4.71,-4.74 -1.14,-2.15 -1.71,-4.92 -1.71,-8.3l0 -17.24 12.9 0 0 15.01c0,2.21 0.36,3.75 1.08,4.62 0.72,0.88 1.71,1.31 2.97,1.31 0.76,0 1.47,-0.2 2.14,-0.6 0.67,-0.4 1.21,-1.07 1.63,-2 0.42,-0.93 0.63,-2.16 0.63,-3.68l0 -14.67 12.9 0 0 31.22 -12.27 0 0 -9.02 2.45 2.45c-1.1,2.44 -2.67,4.23 -4.71,5.39 -2.04,1.16 -4.23,1.74 -6.59,1.74z"/>
    <path id="2" class="fil10" d="M118.8 559.57l0 -5.54 -0.91 -1.48 0 -10.5c0,-1.52 -0.47,-2.68 -1.4,-3.48 -0.93,-0.8 -2.44,-1.2 -4.54,-1.2 -1.41,0 -2.83,0.22 -4.28,0.66 -1.45,0.44 -2.68,1.04 -3.71,1.8l-4.11 -8.5c1.83,-1.14 4.01,-2.02 6.56,-2.63 2.55,-0.61 5.04,-0.91 7.48,-0.91 5.37,0 9.52,1.2 12.47,3.6 2.95,2.4 4.42,6.2 4.42,11.42l0 16.78 -11.99 0zm-8.85 0.57c-2.55,0 -4.68,-0.44 -6.39,-1.31 -1.71,-0.88 -3.01,-2.05 -3.88,-3.51 -0.88,-1.46 -1.31,-3.09 -1.31,-4.88 0,-2.02 0.51,-3.73 1.54,-5.14 1.03,-1.41 2.6,-2.47 4.71,-3.2 2.11,-0.72 4.78,-1.08 8.02,-1.08l6.51 0 0 6.22 -4.45 0c-1.37,0 -2.37,0.22 -3,0.66 -0.63,0.44 -0.94,1.09 -0.94,1.97 0,0.72 0.28,1.32 0.83,1.8 0.55,0.48 1.3,0.71 2.25,0.71 0.88,0 1.68,-0.24 2.43,-0.71 0.74,-0.48 1.28,-1.23 1.63,-2.25l1.66 3.82c-0.49,2.32 -1.54,4.05 -3.14,5.19 -1.6,1.14 -3.75,1.71 -6.45,1.71z"/>
    <polygon id="3" class="fil11" points="136.38,559.57 136.38,517.22 149.27,517.22 149.27,559.57 "/>
    <path id="4" class="fil11" d="M154.98 559.57l0 -31.22 12.9 0 0 31.22 -12.9 0zm6.45 -33.73c-2.36,0 -4.24,-0.63 -5.65,-1.88 -1.41,-1.26 -2.11,-2.82 -2.11,-4.68 0,-1.86 0.7,-3.42 2.11,-4.68 1.41,-1.26 3.29,-1.88 5.65,-1.88 2.36,0 4.24,0.59 5.65,1.77 1.41,1.18 2.11,2.7 2.11,4.57 0,1.98 -0.7,3.61 -2.11,4.88 -1.41,1.27 -3.29,1.91 -5.65,1.91z"/>
    <path id="5" class="fil11" d="M188.66 560.14c-4.3,0 -7.65,-1.04 -10.05,-3.11 -2.4,-2.07 -3.6,-5.26 -3.6,-9.56l0 -26.14 12.9 0 0 26.03c0,0.95 0.26,1.69 0.77,2.23 0.51,0.53 1.15,0.8 1.91,0.8 1.1,0 2.07,-0.29 2.91,-0.86l3.08 8.96c-0.99,0.57 -2.18,0.99 -3.57,1.26 -1.39,0.27 -2.84,0.4 -4.37,0.4zm-17.92 -20.66l0 -9.42 23.57 0 0 9.42 -23.57 0z"/>
    <path id="6" class="fil11" d="M206.12 571.22c-1.71,0 -3.45,-0.26 -5.22,-0.77 -1.77,-0.51 -3.19,-1.19 -4.25,-2.03l4.28 -8.85c0.65,0.49 1.38,0.89 2.2,1.2 0.82,0.3 1.61,0.46 2.37,0.46 1.14,0 2.02,-0.24 2.63,-0.71 0.61,-0.48 1.1,-1.19 1.48,-2.14l1.31 -3.31 0.91 -1.26 9.99 -25.46 12.21 0 -12.84 31.85c-1.14,2.85 -2.46,5.08 -3.97,6.68 -1.5,1.6 -3.18,2.72 -5.02,3.37 -1.85,0.65 -3.87,0.97 -6.08,0.97zm3.02 -10.22l-13.58 -32.65 13.24 0 9.36 24.31 -9.02 8.33z"/>
   </g>
  </g>
  <polygon class="fil8" points="-0,0 577.82,0 577.82,577.82 -0,577.82 "/>
 </g>
</svg>
