<?xml version="1.0" encoding="UTF-8"?>
<!DOCTYPE svg PUBLIC "-//W3C//DTD SVG 1.1//EN" "http://www.w3.org/Graphics/SVG/1.1/DTD/svg11.dtd">
<!-- Creator: CorelDRAW 2020 (64-Bit) -->
<svg xmlns="http://www.w3.org/2000/svg" xml:space="preserve" width="0.333937in" height="0.19135in" version="1.1" style="shape-rendering:geometricPrecision; text-rendering:geometricPrecision; image-rendering:optimizeQuality; fill-rule:evenodd; clip-rule:evenodd"
viewBox="0 0 2.38 1.36"
 xmlns:xlink="http://www.w3.org/1999/xlink"
 xmlns:xodm="http://www.corel.com/coreldraw/odm/2003">
 <defs>
  <style type="text/css">
   <![CDATA[
    .str0 {stroke:black;stroke-width:0.02;stroke-miterlimit:2.61313}
    .fil1 {fill:black}
    .fil0 {fill:black;fill-rule:nonzero}
   ]]>
  </style>
 </defs>
 <g id="Layer_x0020_1">
  <metadata id="CorelCorpID_0Corel-Layer"/>
  <g id="_1448651883984">
   <path class="fil0 str0" d="M1.17 0.92c-0.05,0.04 -0.09,0.06 -0.14,0.07 -0.05,0 -0.09,-0.02 -0.12,-0.06 -0.03,-0.04 -0.05,-0.1 -0.06,-0.18 -0.01,-0.08 -0.01,-0.15 -0,-0.22 -0.04,0.05 -0.07,0.09 -0.09,0.12 -0.02,0.03 -0.05,0.06 -0.09,0.11 -0.04,0.04 -0.08,0.08 -0.12,0.12 -0.12,0.11 -0.24,0.16 -0.36,0.17 -0.11,0.01 -0.17,-0.02 -0.18,-0.07 -0,-0.01 -0,-0.03 0,-0.05 0,-0.02 0.02,-0.04 0.04,-0.06 0.04,-0.03 0.08,-0.05 0.14,-0.06 0.04,-0 0.07,0 0.11,0.01 0.01,0 0.01,0.01 0.01,0.01 -0,0 -0.01,0 -0.03,-0 -0.02,-0.01 -0.04,-0.01 -0.06,-0.01 -0.03,0 -0.05,0.01 -0.07,0.03 -0.02,0.02 -0.04,0.04 -0.04,0.06 -0,0.01 -0,0.02 -0,0.03 0.01,0.04 0.04,0.06 0.1,0.05 0.07,-0 0.13,-0.03 0.19,-0.07 0.03,-0.02 0.07,-0.05 0.1,-0.07 0.03,-0.02 0.06,-0.06 0.1,-0.1 0.06,-0.06 0.11,-0.12 0.15,-0.17 0.04,-0.05 0.09,-0.11 0.14,-0.17 0.05,-0.06 0.09,-0.11 0.11,-0.14 0.07,-0.09 0.14,-0.16 0.19,-0.21 -0.04,-0 -0.09,0 -0.13,0 -0.1,0.01 -0.21,0.03 -0.31,0.05 -0.11,0.03 -0.2,0.07 -0.27,0.12 -0.09,0.07 -0.14,0.13 -0.16,0.2 -0.01,0.03 -0,0.06 0.01,0.09 0.02,0.02 0.05,0.03 0.09,0.03 0.05,-0 0.1,-0.02 0.14,-0.06 0.04,-0.04 0.07,-0.07 0.07,-0.09 0,-0.01 0.01,-0.02 0.01,-0.02 0.01,-0 0.01,0.01 0,0.02 -0.02,0.04 -0.04,0.07 -0.07,0.1 -0.06,0.05 -0.12,0.08 -0.18,0.08 -0.05,0 -0.08,-0.01 -0.11,-0.04 -0.03,-0.03 -0.03,-0.07 -0.02,-0.12 0.02,-0.08 0.08,-0.15 0.17,-0.22 0.09,-0.07 0.2,-0.11 0.34,-0.14 0.09,-0.02 0.18,-0.03 0.25,-0.04 0.08,-0.01 0.14,-0.01 0.21,-0 0.03,-0.02 0.04,-0.04 0.05,-0.04 0,-0 0.01,0 0,0.01 -0,0.01 -0.01,0.02 -0.01,0.03 0.06,0.01 0.09,0.01 0.11,0.01 0.11,0.03 0.16,0.07 0.14,0.15 -0.01,0.05 -0.05,0.09 -0.12,0.14 -0.09,0.06 -0.2,0.11 -0.32,0.14 -0.04,0.01 -0.07,0.01 -0.11,0.02 -0.01,0.14 0,0.25 0.04,0.34 0.01,0.03 0.03,0.05 0.04,0.07 0.01,0.01 0.03,0.02 0.05,0.02 0.03,-0 0.06,-0.02 0.1,-0.05 0.04,-0.03 0.09,-0.09 0.16,-0.18 0.01,-0.01 0.02,-0.02 0.02,-0.02 0.01,-0 0.01,0.01 -0,0.02 -0.07,0.11 -0.13,0.18 -0.18,0.22zm0.24 -0.72c0,-0.01 0,-0.01 0,-0.02 0,-0.04 -0.03,-0.07 -0.08,-0.09 -0.02,-0 -0.06,-0.01 -0.11,-0.01 -0.02,0.03 -0.07,0.08 -0.15,0.18 -0.08,0.09 -0.14,0.17 -0.18,0.22 0.02,-0 0.05,-0.01 0.08,-0.01 0.03,-0.01 0.06,-0.01 0.08,-0.01 0.09,-0.02 0.18,-0.06 0.26,-0.12 0.06,-0.05 0.1,-0.09 0.11,-0.13zm0.15 0.25c-0.01,0.01 -0.03,0.02 -0.04,0.02 -0.01,0 -0.02,-0 -0.03,-0.01 -0.01,-0.01 -0.01,-0.02 -0,-0.03 0.01,-0.01 0.02,-0.03 0.03,-0.04 0.01,-0.01 0.03,-0.02 0.04,-0.02 0.01,-0 0.02,0 0.03,0.01 0.01,0.01 0.01,0.02 0,0.03 -0.01,0.01 -0.02,0.03 -0.03,0.04zm-0.23 0.44c0.02,-0 0.03,-0.01 0.05,-0.03 0.04,-0.03 0.09,-0.09 0.16,-0.19 0.01,-0.01 0.02,-0.02 0.02,-0.01 0,0 0,0 0,0.01 -0,0 -0.01,0.01 -0.02,0.03 -0.01,0.01 -0.02,0.03 -0.03,0.04 -0.01,0.01 -0.02,0.03 -0.04,0.06 -0.02,0.03 -0.04,0.05 -0.05,0.06 -0.04,0.04 -0.08,0.06 -0.11,0.06 -0.03,0 -0.05,-0 -0.06,-0.02 -0.01,-0.02 -0.01,-0.04 -0,-0.06 0.01,-0.02 0.02,-0.04 0.03,-0.07l0.13 -0.2c0,-0 0.01,-0.01 0.01,-0.02 0,-0.01 -0,-0.02 -0.01,-0.03l0.07 -0.01c0.02,-0 0.03,0 0.03,0.01 0,0.01 -0,0.02 -0.02,0.03l-0.15 0.23c-0.02,0.03 -0.03,0.06 -0.04,0.08 -0.01,0.02 0,0.03 0.03,0.03zm0.62 -0.4c-0.14,0.18 -0.22,0.29 -0.23,0.34 -0.01,0.02 -0,0.03 0.01,0.03 0.04,-0 0.11,-0.08 0.22,-0.22 0.01,-0.01 0.01,-0.02 0.02,-0.01 0,0 0.01,0 0,0.01 -0,0 -0,0.01 -0.01,0.01 -0.06,0.09 -0.11,0.15 -0.15,0.18 -0.04,0.03 -0.07,0.05 -0.1,0.05 -0.03,0 -0.05,-0.01 -0.06,-0.03 -0.01,-0.01 -0.01,-0.02 -0,-0.04 0,-0.02 0.01,-0.04 0.03,-0.07 0.01,-0.03 0.05,-0.07 0.1,-0.13 0.01,-0.01 0.02,-0.03 0.02,-0.03 0,-0.01 -0,-0.01 -0.02,-0.01 -0.01,0 -0.04,0.02 -0.09,0.06 -0.07,0.06 -0.15,0.14 -0.23,0.25 -0.01,0.01 -0.01,0.01 -0.02,0.02 -0.01,0 -0.02,0 -0.04,0.01 -0.02,0 -0.03,0 -0.04,0.01 0.02,-0.03 0.06,-0.08 0.12,-0.16 0.1,-0.14 0.17,-0.22 0.19,-0.25 0.01,-0.01 0.03,-0.02 0.04,-0.02 0,-0 0.01,0 0.02,0 0.01,0 0.02,0 0.03,-0 -0.03,0.02 -0.1,0.1 -0.2,0.23 0.05,-0.05 0.09,-0.09 0.13,-0.12 0.04,-0.03 0.08,-0.06 0.13,-0.08 0.05,-0.03 0.08,-0.04 0.1,-0.04 0,-0 0.01,0 0.01,0zm0.4 -0.03c-0.14,0.18 -0.22,0.29 -0.23,0.34 -0.01,0.02 -0,0.03 0.01,0.03 0.04,-0 0.11,-0.08 0.22,-0.22 0.01,-0.01 0.01,-0.02 0.02,-0.01 0,0 0.01,0 0,0.01 -0,0 -0,0.01 -0.01,0.01 -0.06,0.09 -0.11,0.15 -0.15,0.18 -0.04,0.03 -0.07,0.05 -0.1,0.05 -0.03,0 -0.05,-0.01 -0.06,-0.03 -0.01,-0.01 -0.01,-0.02 -0,-0.04 0,-0.02 0.01,-0.04 0.03,-0.07 0.01,-0.03 0.05,-0.07 0.1,-0.13 0.01,-0.01 0.02,-0.03 0.02,-0.03 0,-0.01 -0,-0.01 -0.02,-0.01 -0.01,0 -0.04,0.02 -0.09,0.06 -0.07,0.06 -0.15,0.14 -0.23,0.25 -0.01,0.01 -0.01,0.01 -0.02,0.02 -0.01,0 -0.02,0 -0.04,0.01 -0.02,0 -0.03,0 -0.04,0.01 0.02,-0.03 0.06,-0.08 0.12,-0.16 0.1,-0.14 0.17,-0.22 0.19,-0.25 0.01,-0.01 0.03,-0.02 0.04,-0.02 0,-0 0.01,0 0.02,0 0.01,0 0.02,0 0.03,-0 -0.03,0.02 -0.1,0.1 -0.2,0.23 0.05,-0.05 0.09,-0.09 0.13,-0.12 0.04,-0.03 0.08,-0.06 0.13,-0.08 0.05,-0.03 0.08,-0.04 0.1,-0.04 0,-0 0.01,0 0.01,0z"/>
   <path class="fil1" d="M0.35 1.17c0,0 1,-0.18 1.59,-0.17 0.59,0 -0.87,0.07 -1.59,0.29 -0.72,0.22 -0.1,-0.12 0.01,-0.12z"/>
  </g>
 </g>
</svg>
